<?xml version="1.0" encoding="utf-8"?>
<!-- Generator: Adobe Illustrator 23.0.1, SVG Export Plug-In . SVG Version: 6.00 Build 0)  -->
<svg version="1.1" id="Layer_1" xmlns="http://www.w3.org/2000/svg" xmlns:xlink="http://www.w3.org/1999/xlink" x="0px" y="0px"
	 viewBox="0 0 450 450" style="enable-background:new 0 0 450 450;" xml:space="preserve">
<style type="text/css">
	.st0{fill:#283435;}
	.st1{fill:#FFB67F;}
	.st2{fill:#446063;}
	.st3{fill:#B3C7C9;}
	.st4{fill:#78A8A8;}
	.st5{fill:#4D787C;}
	.st6{opacity:0.2;}
	.st7{fill:#91B1B5;}
	.st8{fill:#222222;}
	.st9{fill:#EC8940;}
	.st10{fill:#FFFFFF;}
	.st11{fill:#56381D;}
	.st12{opacity:0.3;fill:#FFFFFF;}
	.st13{fill:#6A3902;}
	.st14{fill:#724727;}
</style>
<g>
	<polygon class="st0" points="224.95,301.61 224.95,215.12 264.35,217.67 282.09,226.59 287.51,243.79 285.04,269.12 264.35,277.72 
		241.21,286.32 	"/>
	<polygon class="st0" points="224.95,301.61 224.95,215.12 185.54,217.67 167.81,226.59 162.39,243.79 164.86,269.12 185.54,277.72 
		208.7,286.32 	"/>
	<path class="st1" d="M370.23,310.32c-7.31,20.29-22.98,141.84-24.09,149.83H103.86c-1.04-7.99-16.71-129.54-24.21-149.83
		c2.25-2.02,83.46-56.19,86.45-57.36c3.11-1.18,5.74-12.75,7.8-19.57c0-0.11,0-0.11,0-0.11l0.12-0.12c0.12-0.44,0.25-0.89,0.37-1.39
		c0.18-0.62,0.37-1.29,0.61-2.01v-0.23c0.31-1.06,0.55-2.18,0.79-3.3c0.25-1.06,0.49-2.17,0.73-3.3c0.19-1,0.37-1.95,0.55-2.96
		v-0.17c0-0.11,0-0.11,0-0.11c0.42-2.52,0.79-5.03,1.09-7.44c0.12-1.06,0.25-2.01,0.37-3.01c0.25-2.02,0.37-3.92,0.55-5.7
		c0.06-0.45,0.06-0.84,0.06-1.29c0.12-1.18,0.12-2.3,0.18-3.41v-1.45c-0.06-0.67-0.06-1.29-0.06-1.96c0-0.84-0.06-1.67-0.06-2.46
		c-0.06-0.62-0.12-1.29-0.25-1.79v-0.28h92.07c-0.06,0.28-0.19,0.62-0.19,0.95c-0.12,0.78-0.18,1.67-0.24,2.63v2.35
		c0,1.68,0.07,3.53,0.18,5.53c0.06,1.62,0.25,3.35,0.43,5.15c0.07,1.56,0.25,3.18,0.49,4.81c0.24,2.46,0.67,4.97,1.09,7.38
		c0,0,0,0,0.06,0.11c-0.06,0.06,0,0.23,0.06,0.28c0.18,1.01,0.37,1.95,0.55,2.96c0.25,1.12,0.49,2.18,0.73,3.25
		c0.25,1.11,0.56,2.24,0.85,3.24v0.23c0.12,0.72,0.37,1.39,0.55,2.01c0.12,0.5,0.31,0.95,0.42,1.39l0.13,0.12c0,0,0,0,0,0.11
		c2.01,6.82,4.69,18.39,7.74,19.57C286.95,254.13,367.98,308.3,370.23,310.32z"/>
	<path class="st2" d="M429.89,460.17H20.11c0.18-1.18,1.03-15.32,2.44-29.02c0.54-6.09,1.21-12.08,1.94-16.77
		c0.06-0.4,0.13-0.78,0.19-1.17c2.44-14.09,5.49-31.87,8.54-49.15c1.03-5.7,2.01-11.35,2.98-16.77c4.51-25.44,8.48-46.57,9.46-48.42
		c0.31-0.56,0.79-1.23,1.46-1.89c1.04-1.17,2.5-2.46,4.15-3.75c1.89-1.46,4.14-2.97,6.4-4.42c4.27-2.68,8.72-5.04,11.89-6.49
		c0.06,0,0.12-0.06,0.18-0.06c1.53-0.67,3.18-1.34,5.06-2.07c3.72-1.45,8.17-3.08,13.05-4.75c4.03-1.45,8.35-2.91,12.86-4.42
		c5.25-1.73,10.73-3.63,16.22-5.37c0.37-0.11,0.74-0.27,1.1-0.39c0.43-0.11,0.85-0.23,1.28-0.39c0.06,0,0.06,0,0.19,0
		c0.79-0.28,1.58-0.51,2.37-0.73c5.55-1.79,10.97-3.58,16.04-5.2c0.98-0.23,1.89-0.5,2.93-0.9l1.1-0.34
		c0.24-0.11,0.54-0.17,0.79-0.28c2.01-0.62,3.96-1.29,5.85-1.95c4.45-1.57,8.72-3.24,12.44-5.14c3.23-1.68,5.97-3.41,8.17-5.42
		c0.06-0.06,0.12-0.17,0.18-0.23c0.12-0.11,0.3-0.23,0.42-0.39c0.61,2.63,2.07,5.53,4.02,8.55c3.36,10.28,12.93,17.55,23.11,22.7
		c0.31,0.28,0.61,0.45,0.92,0.61c2.56,1.51,5.12,2.8,7.56,4.03c1.64,0.84,3.18,1.62,4.7,2.46c0.55,0.28,1.16,0.62,1.71,1
		c0.61,0.28,1.16,0.67,1.71,1.01c0.79,0.56,1.65,1.12,2.38,1.74c0.73,0.56,1.47,1.17,2.19,1.9c0.43,0.45,0.86,0.84,1.22,1.29
		c0.18,0.16,0.37,0.39,0.49,0.62c0.37,0.39,0.67,0.84,0.97,1.28c0.31,0.39,0.61,0.9,0.85,1.34c0.12,0.17,0.24,0.28,0.31,0.45
		c0.36,0.61,0.67,1.29,0.97,1.95c0.31,0.56,0.49,1.11,0.74,1.73c0.55,1.4,0.98,2.96,1.34,4.64c0.36-1.67,0.79-3.24,1.34-4.64
		c0.06-0.17,0.12-0.34,0.19-0.51c0.43-1.06,0.85-2.01,1.34-2.9c0.73-1.35,1.52-2.52,2.44-3.63c0.37-0.45,0.73-0.84,1.15-1.23
		c0.31-0.34,0.61-0.67,0.98-0.95c0.55-0.56,1.15-1,1.77-1.51c0.06-0.05,0.06-0.05,0.12-0.05c0.37-0.34,0.79-0.56,1.17-0.84
		c0.54-0.44,1.15-0.83,1.83-1.23c1.09-0.73,2.25-1.34,3.47-1.96c1.22-0.67,2.44-1.29,3.72-1.96c2.44-1.23,4.94-2.52,7.56-4.03
		c0.24-0.16,0.48-0.27,0.79-0.49c10.25-5.14,19.87-12.53,23.29-22.86c0-0.06,0.06-0.06,0.06-0.12c1.77-2.74,3.1-5.42,3.77-7.88
		c0.49,0.61,1.1,1.17,1.71,1.67c2.19,1.91,4.7,3.47,7.38,4.76c1.9,0.89,3.9,1.67,5.98,2.4c1.04,0.4,2.07,0.73,3.18,1.07
		c1.03,0.34,2.13,0.67,3.23,1c1.89,0.62,3.9,1.17,5.91,1.79c0.06,0.06,0.06,0.06,0.12,0.06c0.55,0.17,1.1,0.34,1.64,0.5
		c0.92,0.39,1.83,0.67,2.8,0.9c5.92,1.9,12.14,3.92,18.48,5.93h0.24c0.24,0.06,0.43,0.16,0.67,0.22c0.61,0.17,1.22,0.34,1.83,0.56
		c5.36,1.9,10.79,3.64,16.15,5.37c1.1,0.39,2.26,0.79,3.36,1.12c3.29,1.11,6.52,2.24,9.57,3.29c2.13,0.72,4.15,1.45,6.04,2.18
		c1.16,0.39,2.25,0.84,3.35,1.23c1.28,0.44,2.44,0.9,3.6,1.34c1.83,0.73,3.54,1.4,5,2.07c0.12,0.06,0.18,0.11,0.31,0.17
		c0.67,0.33,1.46,0.67,2.25,1.06c0.12,0.06,0.18,0.11,0.3,0.16c0.86,0.39,1.72,0.9,2.69,1.39c2.01,1.12,4.2,2.41,6.41,3.75
		c2.32,1.45,4.51,2.96,6.4,4.42c1.71,1.29,3.24,2.58,4.33,3.75c0.61,0.66,1.1,1.34,1.4,1.89c0.98,1.85,4.88,22.98,9.45,48.42
		c0.97,5.42,1.95,11.07,2.99,16.77c2.99,17.28,6.04,35.06,8.48,49.15c0.06,0.39,0.12,0.78,0.18,1.17c0.19,1.17,0.37,2.4,0.55,3.74
		c0.18,1.34,0.31,2.69,0.48,4.13c0.25,2.13,0.49,4.36,0.73,6.6c0.07,0.78,0.19,1.51,0.25,2.29
		C428.74,444.85,429.65,458.99,429.89,460.17z"/>
	<path class="st3" d="M380.51,282.43v14.54h-18.29V280.2h12.99c1.83,0.73,3.54,1.4,5,2.07
		C380.32,282.32,380.38,282.38,380.51,282.43z"/>
	<rect x="362.21" y="347.29" class="st3" width="18.29" height="16.77"/>
	<rect x="362.21" y="414.38" class="st3" width="18.29" height="16.77"/>
	<rect x="289.05" y="414.38" class="st3" width="18.29" height="16.77"/>
	<rect x="289.05" y="347.29" class="st3" width="18.29" height="16.77"/>
	<rect x="289.05" y="280.2" class="st3" width="18.29" height="16.78"/>
	<rect x="215.88" y="347.29" class="st3" width="18.29" height="16.77"/>
	<rect x="215.88" y="414.38" class="st3" width="18.29" height="16.77"/>
	<rect x="142.72" y="414.38" class="st3" width="18.29" height="16.77"/>
	<rect x="142.72" y="280.2" class="st3" width="18.29" height="16.78"/>
	<rect x="142.72" y="347.29" class="st3" width="18.29" height="16.77"/>
	<rect x="69.55" y="414.38" class="st3" width="18.29" height="16.77"/>
	<path class="st3" d="M87.84,280.2v16.78H69.55v-14.65c0.06,0,0.12-0.06,0.18-0.06c1.53-0.67,3.18-1.34,5.06-2.07H87.84z"/>
	<rect x="69.55" y="347.29" class="st3" width="18.29" height="16.77"/>
	<g>
		<g>
			<path class="st4" d="M69.55,282.32v14.65H47.11c1.04-1.17,2.5-2.46,4.15-3.75c1.89-1.46,4.14-2.97,6.4-4.42
				C61.93,286.13,66.38,283.77,69.55,282.32z"/>
			<rect x="87.84" y="280.2" class="st4" width="54.88" height="16.78"/>
			<path class="st4" d="M223.63,296.97h-62.62V280.2h44.39c1.64,0.84,3.18,1.62,4.7,2.46c0.55,0.28,1.16,0.62,1.71,1
				c0.61,0.28,1.16,0.67,1.71,1.01c0.79,0.56,1.65,1.12,2.38,1.74c0.73,0.56,1.47,1.17,2.19,1.9c0.43,0.45,0.86,0.84,1.22,1.29
				c0.18,0.16,0.37,0.39,0.49,0.62c0.37,0.39,0.67,0.84,0.97,1.28c0.43,0.56,0.8,1.17,1.17,1.79c0.36,0.61,0.67,1.29,0.97,1.95
				C223.2,295.8,223.38,296.35,223.63,296.97z"/>
			<path class="st4" d="M289.05,280.2v16.78h-62.74c1.03-2.86,2.38-5.09,3.97-7.05c0.37-0.45,0.73-0.84,1.15-1.23
				c0.31-0.34,0.61-0.67,0.98-0.95c0.55-0.56,1.15-1,1.77-1.51c0.42-0.33,0.85-0.62,1.28-0.9c0.54-0.44,1.15-0.83,1.83-1.23
				c2.2-1.4,4.63-2.57,7.2-3.92H289.05z"/>
			<rect x="307.34" y="280.2" class="st4" width="54.87" height="16.78"/>
			<path class="st4" d="M402.88,296.97h-22.38v-14.54c3.11,1.4,7.44,3.75,11.65,6.38c2.32,1.45,4.51,2.96,6.4,4.42
				C400.26,294.52,401.79,295.8,402.88,296.97z"/>
			<path class="st4" d="M69.55,347.29v16.77H33.22c1.03-5.7,2.01-11.35,2.98-16.77H69.55z"/>
			<rect x="87.84" y="347.29" class="st4" width="54.88" height="16.77"/>
			<rect x="161.01" y="347.29" class="st4" width="54.87" height="16.77"/>
			<rect x="234.18" y="347.29" class="st4" width="54.87" height="16.77"/>
			<rect x="307.34" y="347.29" class="st4" width="54.87" height="16.77"/>
			<path class="st4" d="M416.72,364.06h-36.22v-16.77h33.23C414.71,352.71,415.69,358.36,416.72,364.06z"/>
			<path class="st4" d="M69.55,414.38v16.77H22.54c0.54-6.09,1.21-12.08,1.94-16.77H69.55z"/>
			<rect x="87.84" y="414.38" class="st4" width="54.88" height="16.77"/>
			<rect x="161.01" y="414.38" class="st4" width="54.87" height="16.77"/>
			<rect x="234.18" y="414.38" class="st4" width="54.87" height="16.77"/>
			<rect x="307.34" y="414.38" class="st4" width="54.87" height="16.77"/>
			<path class="st4" d="M427.4,431.15h-46.89v-16.77h44.87C426.11,419.07,426.78,425.06,427.4,431.15z"/>
		</g>
		<g>
			<path class="st5" d="M161.01,250.34v29.85h-18.29v-22.75c2.01-0.62,3.96-1.29,5.85-1.95
				C153.02,253.92,157.29,252.24,161.01,250.34z"/>
			<rect x="142.72" y="296.97" class="st5" width="18.29" height="50.31"/>
			<rect x="142.72" y="364.06" class="st5" width="18.29" height="50.33"/>
			<rect x="142.72" y="431.15" class="st5" width="18.29" height="29.02"/>
			<path class="st5" d="M87.84,275.44v4.75H74.79C78.51,278.74,82.97,277.12,87.84,275.44z"/>
			<rect x="69.55" y="296.97" class="st5" width="18.29" height="50.31"/>
			<rect x="69.55" y="364.06" class="st5" width="18.29" height="50.33"/>
			<rect x="69.55" y="431.15" class="st5" width="18.29" height="29.02"/>
			<path class="st5" d="M234.18,286.23v61.05h-18.29v-60.88c0.73,0.56,1.47,1.17,2.19,1.9c0.43,0.45,0.86,0.84,1.22,1.29
				c0.18,0.16,0.37,0.39,0.49,0.62c0.37,0.39,0.67,0.84,0.97,1.28c0.31,0.39,0.61,0.9,0.85,1.34c0.12,0.17,0.24,0.28,0.31,0.45
				c0.36,0.61,0.67,1.29,0.97,1.95c0.31,0.56,0.49,1.11,0.74,1.73c0.55,1.4,0.98,2.96,1.34,4.64c0.36-1.67,0.79-3.24,1.34-4.64
				c0.06-0.17,0.12-0.34,0.19-0.51c0.43-1.06,0.85-2.01,1.34-2.9c0.73-1.35,1.52-2.52,2.44-3.63c0.37-0.45,0.73-0.84,1.15-1.23
				c0.31-0.34,0.61-0.67,0.98-0.95C232.96,287.18,233.56,286.74,234.18,286.23z"/>
			<rect x="215.88" y="364.06" class="st5" width="18.29" height="50.33"/>
			<rect x="215.88" y="431.15" class="st5" width="18.29" height="29.02"/>
			<path class="st5" d="M307.34,257.5v22.7h-18.29v-28.95c3.78,1.78,7.98,3.13,12.38,4.47C303.32,256.33,305.33,256.89,307.34,257.5
				z"/>
			<rect x="289.05" y="296.97" class="st5" width="18.29" height="50.31"/>
			<rect x="289.05" y="364.06" class="st5" width="18.29" height="50.33"/>
			<rect x="289.05" y="431.15" class="st5" width="18.29" height="29.02"/>
			<path class="st5" d="M375.2,280.2h-12.99v-4.75c2.13,0.72,4.15,1.45,6.04,2.18c1.16,0.39,2.25,0.84,3.35,1.23
				C372.88,279.3,374.04,279.75,375.2,280.2z"/>
			<rect x="362.21" y="296.97" class="st5" width="18.29" height="50.31"/>
			<rect x="362.21" y="364.06" class="st5" width="18.29" height="50.33"/>
			<rect x="362.21" y="431.15" class="st5" width="18.29" height="29.02"/>
		</g>
	</g>
	<path class="st4" d="M236.31,289.93v170.24h-11.34V301.61c1.03-5.09,2.93-8.78,5.3-11.69H236.31z"/>
	<path class="st6" d="M303.75,266.58c0,17.34-14.76,53.97-17.75,60.39c-4.39-10.9-17.68-37.61-26.09-39.08
		c-8.35-1.53-14.75,3.93-14.75,11.34c-7.39-2.94-14.29-6.5-20.2,2.39c3.4-17.82,14.77-18.19,27.09-26.09
		c0.24-0.18,0.48-0.31,0.79-0.55c7.68-5.14,17.62-15.44,23.29-25.06c0-0.06,0.06-0.06,0.06-0.12c1.77-3,3.1-5.94,3.77-8.64
		c0.67-2.51,0.74-4.84,0.12-6.74c-4.33-13.66-5.76-14.32,5.34-6.49c8.96,6.31,12.9,14.57,16.01,25.17
		C303.01,258.25,303.75,263.02,303.75,266.58z"/>
	<path class="st6" d="M224.95,301.61c-5.92-8.88-12.79-5.33-20.22-2.39c0-7.41-6.41-12.86-14.76-11.34
		c-8.35,1.47-21.64,28.18-26.1,39.08c-2.99-6.43-17.68-43.06-17.74-60.39c0-3.62,0.79-8.46,2.44-13.73
		c3.11-10.53,9.33-22.54,18.23-28.85c0,0,7.25-3,2.98,10.41c-0.55,1.78-0.55,3.85,0,6.19c0.61,2.88,2.07,6.07,4.02,9.38
		c5.61,9.55,15.49,19.72,23.11,24.87c0.31,0.31,0.61,0.49,0.92,0.68C210.15,283.43,221.47,283.79,224.95,301.61z"/>
	<polygon class="st0" points="111.06,373.09 97.84,460.19 103.21,460.19 	"/>
	<path class="st7" d="M303.72,264.81c0,0.28,0,0.51-0.06,0.79c-0.37,16.99-14.76,51.43-17.68,57.52
		c-4.39-10.51-17.68-36.28-26.1-37.74c-8.36-1.45-14.75,3.8-14.75,10.96c-7.38-2.85-14.27-3.3-20.18,5.25
		c3.41-17.21,14.75-20.51,27.07-28.17c0.24-0.17,0.48-0.28,0.79-0.5c7.68-4.98,17.62-14.93,23.3-24.21c0-0.06,0.06-0.06,0.06-0.11
		c1.15-1.85,2.07-3.69,2.8-5.48c0.43-0.95,0.73-1.96,0.98-2.85c0.67-2.41,0.73-4.7,0.12-6.49c-1.1-3.35-3.17-6.09-6.04-8.38
		c-0.18-0.78-0.36-1.57-0.55-2.35c-0.18-1.01-0.37-1.96-0.55-2.96c-0.06-0.05-0.12-0.22-0.06-0.28c-0.06-0.11-0.06-0.11-0.06-0.11
		v-0.17c4.09,1.12,7.74,2.46,10.24,4.2c8.97,6.1,15.25,17.84,18.36,28.07C302.98,256.76,303.72,261.4,303.72,264.81z"/>
	<path class="st7" d="M224.95,301.59c-5.92-8.55-12.81-8.1-20.24-5.25c0-7.16-6.41-12.41-14.76-10.96
		c-8.35,1.46-21.64,27.23-26.09,37.74c-2.93-6.09-17.13-40.31-17.68-57.36c-0.06-0.34-0.06-0.61-0.06-0.95
		c0-3.47,0.79-8.16,2.44-13.25c3.11-10.17,9.33-21.75,18.23-27.84c2.56-1.73,6.22-3.13,10.37-4.25c-0.06,0.05-0.06,0.17-0.06,0.23
		c0,0,0,0,0,0.11v0.17c-0.18,1-0.37,1.96-0.55,2.96c-0.18,0.78-0.36,1.57-0.55,2.35c-2.93,2.3-5.12,5.09-6.21,8.49
		c-0.55,1.69-0.55,3.7,0,5.93c0.23,1.18,0.67,2.41,1.21,3.63c0.73,1.73,1.65,3.58,2.8,5.43c5.61,9.22,15.49,19.06,23.11,24.04
		c0.31,0.28,0.61,0.45,0.92,0.62C210.13,281.08,221.47,284.38,224.95,301.59z"/>
	<polygon class="st0" points="338.85,373.09 352.06,460.19 346.68,460.19 	"/>
	<g>
		<path class="st8" d="M233.8,321c0,1.6-1.42,2.9-3.16,2.9c-1.74,0-3.16-1.3-3.16-2.9c0-1.6,1.42-2.89,3.16-2.89
			C232.38,318.1,233.8,319.4,233.8,321z"/>
		<path class="st8" d="M233.8,399.66c0,1.59-1.42,2.89-3.16,2.89c-1.74,0-3.16-1.3-3.16-2.89c0-1.59,1.42-2.9,3.16-2.9
			C232.38,396.77,233.8,398.07,233.8,399.66z"/>
	</g>
	<path class="st6" d="M275.06,229.76v-0.23c-0.3-1.01-0.61-2.13-0.85-3.24c-0.24-1.07-0.48-2.13-0.73-3.25
		c-0.18-1.01-0.37-1.96-0.55-2.96c-0.06-0.05-0.12-0.22-0.06-0.28c-0.06-0.11-0.06-0.11-0.06-0.11c-0.43-2.41-0.85-4.92-1.09-7.38
		c-0.25-1.63-0.43-3.24-0.49-4.81c-0.18-1.79-0.37-3.52-0.43-5.15c-3.96,5.37-8.84,10.79-10.37,10.79c-2.31,0-5.49-9.95-9.81-12.13
		c-4.33-2.18-16.1-3.85-25.61-3.85c-9.51,0-21.28,1.67-25.61,3.85c-4.33,2.18-7.5,12.13-9.82,12.13c-1.52,0-6.46-5.48-10.43-10.9
		c0,0.44,0,0.84-0.06,1.29c-0.19,1.79-0.31,3.68-0.55,5.7c-0.12,1-0.24,1.96-0.37,3.01c-0.31,2.41-0.67,4.92-1.09,7.44
		c0,0,0,0,0,0.11v0.17c-0.18,1-0.37,1.96-0.55,2.96c-0.24,1.12-0.48,2.24-0.73,3.3c-0.24,1.12-0.48,2.24-0.79,3.3v0.23
		c-0.25,0.72-0.43,1.39-0.61,2.01c10.61,10.23,25,23.19,31.59,26.09c3.05,1.35,35,1.35,38.05,0c6.58-2.91,20.97-15.86,31.58-26.09
		C275.43,231.15,275.18,230.48,275.06,229.76z M245.31,214.66c-2.92,4.86-9.75,10-20.3,10c-10.55,0-17.37-5.15-20.3-10
		c-1.52-2.57,1.52-4.92,5.37-4.92H240C243.78,209.74,246.83,212.09,245.31,214.66z"/>
	<path class="st1" d="M291.02,71.86c-6.57-23.79-50.54-26.64-66-26.64c-15.47,0-59.42,2.85-66,26.64
		c-6.59,23.81,1.38,108.55,2.76,120.93c1.4,12.38,30.46,37.46,37.38,41.89c6.93,4.46,17.09,6.99,25.86,6.99
		c8.77,0,18.93-2.53,25.85-6.99c6.94-4.43,36-29.5,37.39-41.89C289.62,180.41,297.59,95.67,291.02,71.86z"/>
	<g>
		<path class="st1" d="M291.19,134.31c0.27-5.64,5.77-15.53,10.73-10.36c5,5.17,3.16,23.9,1.17,30.45
			c-2,6.54-11.17,21.15-14.85,20.83c0.59-6.88,1.35-18.5,1.95-24.76C290.81,144.19,290.94,139.04,291.19,134.31z"/>
		<path class="st9" d="M294.97,142.97c-0.92-3.36-1-6.86-0.06-10.39c0.33-0.82,0.54-1.95,2.13-2.51c0.77-0.17,1.48,0.05,2.02,0.37
			c0.51,0.34,0.9,0.73,1.21,1.14c1.19,1.65,1.58,3.47,1.79,5.26c0.14,1.8-0.01,3.63-0.56,5.4c-0.62,1.74-1.42,3.29-2.38,4.81
			c-1.99,2.91-3.29,6.01-4.44,9.32c0.18-1.72,0.53-3.41,1.01-5.1c0.51-1.67,1.33-3.31,2.11-4.83c0.71-1.54,1.48-3.12,1.93-4.65
			c0.42-1.55,0.56-3.18,0.4-4.78c-0.14-1.59-0.55-3.25-1.38-4.49c-0.41-0.63-0.98-1-1.29-0.93c-0.3,0-0.86,0.72-1.15,1.43
			c-0.62,1.49-0.91,3.2-1.12,4.87C294.96,139.57,294.83,141.27,294.97,142.97z"/>
	</g>
	<g>
		<path class="st1" d="M158.74,132.89c-0.28-5.63-5.77-15.52-10.76-10.36c-4.97,5.19-3.14,23.91-1.15,30.46
			c1.98,6.54,11.17,21.15,14.83,20.83c-0.58-6.87-1.33-18.48-1.94-24.76C159.12,142.79,158.99,137.63,158.74,132.89z"/>
		<path class="st9" d="M154.97,141.58c0.13-1.72,0-3.42-0.23-5.1c-0.2-1.67-0.49-3.37-1.12-4.86c-0.29-0.72-0.84-1.44-1.12-1.44
			c-0.33-0.08-0.9,0.3-1.31,0.92c-0.84,1.25-1.24,2.9-1.38,4.49c-0.16,1.6-0.03,3.24,0.4,4.8c0.43,1.53,1.2,3.1,1.94,4.64
			c0.76,1.53,1.58,3.16,2.1,4.84c0.46,1.69,0.82,3.39,1.01,5.1c-1.15-3.3-2.46-6.41-4.45-9.32c-0.95-1.52-1.75-3.07-2.38-4.83
			c-0.55-1.75-0.7-3.59-0.55-5.39c0.2-1.79,0.6-3.61,1.79-5.26c0.31-0.41,0.68-0.82,1.21-1.14c0.52-0.33,1.24-0.55,2.02-0.37
			c1.58,0.55,1.8,1.67,2.12,2.5C155.96,134.7,155.88,138.22,154.97,141.58z"/>
	</g>
	<g>
		<path class="st9" d="M200.6,203.77c1.9,0.79,3.88,1.4,5.82,1.83c0.98,0.22,1.96,0.36,2.88,0.38c0.87,0.01,1.89-0.09,2.96-0.17
			c4.16-0.27,8.35-0.37,12.53-0.48c2.1-0.07,4.19-0.05,6.28-0.18l6.19-0.34c3.92-0.39,8.1-0.9,12.18-1.64
			c0.07-0.02,0.14,0.02,0.16,0.09c0.02,0.05-0.01,0.11-0.04,0.13c-1.75,1.2-3.77,1.94-5.76,2.64c-2.01,0.64-4.07,1.15-6.3,1.38
			c-2.3,0.09-4.19-0.03-6.32,0.04c-2.1,0.02-4.19,0.2-6.27,0.29c-4.17,0.22-8.33,0.48-12.52,0.54c-1.02-0.03-2.11,0.05-3.33-0.15
			c-1.14-0.19-2.2-0.53-3.21-0.92c-1.99-0.82-3.85-1.86-5.4-3.22c-0.06-0.05-0.06-0.13-0.01-0.18
			C200.48,203.76,200.56,203.75,200.6,203.77z"/>
		<path class="st9" d="M217.18,213.88c1.45,0.45,2.73,0.71,4.04,0.92c1.28,0.17,2.55,0.31,3.83,0.3c2.58,0.04,4.97-0.29,7.8-1.22
			c-0.67,1.27-1.92,2.25-3.3,2.86c-1.4,0.65-2.98,0.9-4.53,0.9c-1.56-0.04-3.1-0.33-4.48-0.96
			C219.16,216.08,217.88,215.15,217.18,213.88z"/>
	</g>
	<g>
		<path class="st9" d="M218.09,188.27c-0.65-0.16-1.31-0.3-1.96-0.5c-0.33-0.1-0.65-0.2-0.97-0.32c-0.17-0.07-0.33-0.14-0.49-0.24
			c-0.13-0.13-0.41-0.15-0.44-0.63c0.2-0.46,0.36-0.4,0.48-0.54c0.2-0.1,0.4-0.2,0.59-0.24c0.38-0.12,0.75-0.13,1.11-0.13
			c0.74,0.02,1.45,0.13,2.11,0.3c1.51,0.36,2.56,1.36,3.57,2.11c0.51,0.4,1.01,0.82,1.51,1.15c0.46,0.34,1.14,0.6,1.33,0.63
			c0.95-0.06,1.98-1.01,2.98-1.77c1.05-0.77,2.04-1.75,3.58-2.12c0.62-0.15,1.39-0.27,2.1-0.29c0.72,0.04,1.55,0,2.16,0.82
			c0.04,0.62-0.29,0.56-0.41,0.71c-0.17,0.1-0.34,0.17-0.49,0.24c-0.32,0.12-0.65,0.22-0.98,0.32c-0.64,0.21-1.3,0.35-1.95,0.5
			l1.8-0.81c0.31-0.14,0.61-0.28,0.87-0.43c0.13-0.09,0.27-0.17,0.37-0.26c0.12-0.02,0.15-0.31,0.15-0.01
			c-0.18-0.23-0.93-0.36-1.49-0.27c-0.63,0.06-1.18,0.2-1.84,0.42c-1.08,0.37-2.02,1.24-3,2.07c-1.01,0.78-1.91,1.88-3.71,2.13
			c-1.17-0.05-1.69-0.51-2.3-0.89c-0.57-0.4-1.08-0.82-1.57-1.24c-1-0.84-1.9-1.69-3.01-2.07c-0.61-0.23-1.23-0.36-1.84-0.42
			c-0.58-0.11-1.26,0.09-1.45,0.19c-0.11-0.15,0.24,0.25,0.48,0.35c0.28,0.16,0.57,0.29,0.87,0.43L218.09,188.27z"/>
		<g>
			<path class="st9" d="M235.02,180.82c1.46,0.28,2.86,1.14,3.44,2.61c0.25,0.73,0.23,1.56-0.09,2.23
				c-0.33,0.67-0.81,1.22-1.46,1.59c0.38-1.34,0.64-2.45,0.24-3.42C236.81,182.82,235.91,181.92,235.02,180.82z"/>
			<path class="st9" d="M214.99,180.82c-0.88,1.11-1.77,2-2.11,3.02c-0.4,0.97-0.14,2.08,0.24,3.42c-0.65-0.37-1.12-0.92-1.45-1.59
				c-0.33-0.67-0.35-1.5-0.1-2.23C212.15,181.96,213.55,181.09,214.99,180.82z"/>
		</g>
	</g>
	<g>
		<path class="st10" d="M239.72,137.78c3.56-5.26,13.3-6.5,16.85-6.5c4.86,0,13.05,2.32,15.94,4.49c-3.41,4.63-10.3,6.65-14.95,7.13
			C252.9,143.36,244.4,141.66,239.72,137.78z"/>
		<path class="st11" d="M263.29,136.79c0,3.11-3.62,5.62-8.06,5.62c-4.45,0-8.06-2.51-8.06-5.62c0-3.11,3.6-5.63,8.06-5.63
			C259.67,131.16,263.29,133.68,263.29,136.79z"/>
		<path d="M259.78,136.79c0,1.75-2.03,3.18-4.55,3.18c-2.51,0-4.53-1.43-4.53-3.18c0-1.75,2.02-3.18,4.53-3.18
			C257.75,133.62,259.78,135.04,259.78,136.79z"/>
		<path class="st12" d="M255.66,135.27c0,1.01-1.15,1.81-2.59,1.81c-1.43,0-2.59-0.8-2.59-1.81c0-1,1.16-1.81,2.59-1.81
			C254.5,133.46,255.66,134.27,255.66,135.27z"/>
		<path d="M239.72,137.78c0.91-2.14,3.27-4,6.08-5.18c2.82-1.25,6.02-1.93,9.32-2.18c3.39-0.26,6.79,0.48,9.71,1.31
			c2.93,0.95,5.9,2.01,7.98,3.85l0.21,0.18l-0.14,0.14c-0.61,0.61-1.25,1.18-2,1.67c0.46-0.64,0.89-1.28,1.26-1.93l0.07,0.33
			c-2.42-1.26-5.29-2.09-8.2-2.73c-2.96-0.62-5.76-1.17-8.67-1c-2.93,0.17-5.88,0.72-8.63,1.54
			C243.98,134.65,241.57,135.94,239.72,137.78z"/>
	</g>
	<g>
		<path class="st10" d="M210.31,138.06c-3.57-5.46-13.31-6.75-16.85-6.75c-4.88,0-13.06,2.41-15.95,4.66
			c3.41,4.8,10.31,6.9,14.95,7.4C197.12,143.85,205.64,142.08,210.31,138.06z"/>
		<path class="st11" d="M186.74,137.04c0,3.23,3.61,5.84,8.06,5.84s8.06-2.61,8.06-5.84c0-3.23-3.62-5.84-8.06-5.84
			S186.74,133.81,186.74,137.04z"/>
		<path d="M190.25,137.04c0,1.82,2.02,3.3,4.54,3.3c2.51,0,4.53-1.48,4.53-3.3c0-1.82-2.02-3.3-4.53-3.3
			C192.28,133.74,190.25,135.22,190.25,137.04z"/>
		<path class="st12" d="M194.37,135.46c0,1.05,1.15,1.88,2.59,1.88c1.42,0,2.59-0.83,2.59-1.88c0-1.04-1.17-1.88-2.59-1.88
			C195.53,133.58,194.37,134.42,194.37,135.46z"/>
		<path d="M210.31,138.06c-0.92-2.22-3.28-4.15-6.09-5.38c-2.8-1.29-6.01-2.01-9.32-2.26c-3.39-0.27-6.79,0.5-9.71,1.36
			c-2.93,0.98-5.89,2.09-7.98,4l-0.22,0.19l0.14,0.15c0.61,0.63,1.26,1.22,2,1.74c-0.46-0.67-0.88-1.33-1.26-2.01l-0.07,0.34
			c2.41-1.31,5.3-2.17,8.2-2.83c2.96-0.65,5.76-1.22,8.67-1.03c2.93,0.17,5.89,0.74,8.63,1.6
			C206.04,134.81,208.45,136.15,210.31,138.06z"/>
	</g>
	<path class="st13" d="M236.45,119.83c0,2.7,2.67,4.35,5.96,3.71c2.35-0.48,7.7-1.5,9.69-2.04c4.95-1.33,12.41-3.54,16.73-3.07
		c4.32,0.46,9.02,2.11,11.06,3.74c-0.52-3.26-3.06-7.7-8.14-8.62c-3.99-0.73-19.75-0.23-29.28,0.58
		C235.55,114.72,236.45,117.13,236.45,119.83z"/>
	<path class="st13" d="M213.59,119.83c0,2.7-2.67,4.35-5.96,3.71c-2.36-0.48-7.7-1.5-9.69-2.04c-4.96-1.33-12.41-3.54-16.73-3.07
		c-4.33,0.46-9.03,2.11-11.06,3.74c0.51-3.26,3.05-7.7,8.13-8.62c4-0.73,19.76-0.23,29.28,0.58
		C214.48,114.72,213.59,117.13,213.59,119.83z"/>
	<g>
		<path class="st14" d="M152.23,81.43c0,0,1.77,50.57,2.31,54.08c0.55,3.5,6.22,23.26,7.03,27.52c-2.16-21.02-2.92-52.27-1.36-59.54
			c0.4-1.87,4.86-14.76,4.86-14.76C164.82,78.98,152.23,81.43,152.23,81.43z"/>
		<path class="st14" d="M297.62,76.47c0,0-1.77,55.53-2.31,59.03c-0.55,3.5-6.22,23.26-7.03,27.52c2.17-21.02,2.17-57.78,1.36-59.54
			c-0.81-1.75-0.14-9.99-4.88-20.5C280.71,73.98,297.62,76.47,297.62,76.47z"/>
		<path class="st11" d="M163.09,94.54c-13.5-8.51-18.27-24.83-11.25-41.84c3.45-8.35,15.14-20.5,25.39-27.51
			c10.26-7.01,23.24-3.01,30.8-3.51c7.56-0.49,17.29-4.5,18.9-3.5c1.63,1.01,5.41,2.5,10.27,2.5s8.11-3.82,9.73-2.66
			c1.62,1.16-2.43,9.41,2.97,9.91c5.41,0.5,10-2.26,13.78-2.26c-1.62,5.63,3.24,6,14.59,6c-0.54,2,1.62,8.63,6.48,8.63
			c4.86,0,11.56,0.5,18.93,3c-3.51,3.88-8.52,15.83-8.38,19.64c0.13,4.13,2.02,7.88,8.38,8.75c-1.09,3-11.31,15.63-16.16,19.14
			c-3.39-4.87-15.72-11.14-27.61-11.14c-11.9,0-25.47,10.01-33,10.01c-7.53,0-21.04-9.51-35.08-8.01
			C177.78,83.22,165.8,91.04,163.09,94.54z"/>
		<path class="st14" d="M186.9,77.47c-4.05,1.12-21.77-0.49-25.62-11.19c-3.85-10.69,1.71-30.27,22.78-34.96
			c-8.1,7.13-17.42,23.32-10.31,31.52c0.79-4.32,4.23-8.63,8.09-9.2c-1.41,2.07-2.22,8.82-0.2,10.13c1.01-4.5,4.05-5.25,5.27-5.81
			c-1.21,1.88-0.81,3.94,0,5.44c1.21-2.07,3.65-2.44,5.06-2.64c-0.81,2.26-2.63,8.26,4.05,12.39c-5.46,0.74-11.34,0.56-13.98-0.38
			C183.68,74.58,185.07,76.9,186.9,77.47z"/>
		<path class="st14" d="M250.18,72.47c-1.62-6.75-1.89-16.76,7.83-20.26c-1.35,3-3.51,10.02-1.08,11.77
			c2.71-5.01,15.95-19.76,34.32-18.77c-10.54,4.5-14.59,9.21-14.86,13.61c-0.27,4.41,9.45,7.16,12.97,6.41
			c-1.36,5.25-4.58,10.25-11.61,11.25c0.81-3.5-6.22-9.5-14.47-3C261.65,70.97,255.04,67.97,250.18,72.47z"/>
		<path class="st14" d="M220.19,81.15c-9.73-4.42-16.21-9.93-12.97-26.6c2.97,3.92,5.95,7.87,11.35,10.53
			c-4.05-11.61-0.87-27.48,9.72-38.13c-2.16,9.51-3.64,24.74,2.63,24.52c5.27-0.19,12.78-14.5,25.47-12.01
			c-4.59,3.76-16.24,15.1-14.59,34.52c-2.97-4.25-7.7-7.5-10.88-6c-3.17,1.5-4.59,4.48-4.59,8.5
			C223.44,74.47,219.45,77.77,220.19,81.15z"/>
	</g>
	<path class="st14" d="M275.68,189c-2.59,5.7-12.95,18.55-15.26,18.55c-2.31,0-5.47-9.96-9.79-12.12
		c-4.32-2.16-16.12-3.88-25.63-3.88c-9.51,0-21.31,1.72-25.63,3.88c-4.32,2.16-7.48,12.12-9.79,12.12
		c-2.31,0-12.67-12.85-15.26-18.55c-1.69-3.71-9.87-21.81-16.21-40.14c2.3,20.04,2.45,59.04,4.64,63.26
		c6.63,12.8,33.46,33.04,43.23,37.34c3.07,1.36,19.02,0.81,19.02,0.81s15.95,0.54,19.02-0.81c9.77-4.3,36.6-24.54,43.23-37.34
		c2.19-4.21,1.68-41.87,3.99-61.91C284.91,168.54,277.38,185.3,275.68,189z M204.73,209.08c-1.54-2.58,1.5-4.94,5.31-4.94
		c8.36,0,21.58,0,29.94,0c3.82,0,6.85,2.35,5.31,4.94c-2.91,4.84-9.74,9.98-20.28,9.98C214.47,219.06,207.64,213.92,204.73,209.08z"
		/>
</g>
</svg>
