<?xml version="1.0" encoding="utf-8"?>
<!-- Generator: Adobe Illustrator 23.0.1, SVG Export Plug-In . SVG Version: 6.00 Build 0)  -->
<svg version="1.1" id="Layer_4" xmlns="http://www.w3.org/2000/svg" xmlns:xlink="http://www.w3.org/1999/xlink" x="0px" y="0px"
	 viewBox="0 0 621.92 75.96" style="enable-background:new 0 0 621.92 75.96;" xml:space="preserve">
<style type="text/css">
	.st0{fill-rule:evenodd;clip-rule:evenodd;fill:#FFFFFF;}
</style>
<path class="st0" d="M395.2,52.83c6.35-3.79,12.89-3.98,19.63-3.4c3.33,0.29,6.41,1.38,9.74,1.71c7.32,0.73,14.7,1.3,22.1,1.75
	c5.19,0.31,10.45,0.31,15.68,0.46c0.61,0.02,1.28,0.19,1.82,0.1c20.79-3.33,42.63-1.31,63.63-3.53c4.85-0.51,9.61-1.24,14.44-1.82
	c4.5-0.54,8.05-0.06,9.42,2.85c-3.5,2.5-9.21,2.78-14.17,2.75c-5.01-0.03-9.36,0.75-13.98,1.13c-12.24,1.01-24.82,1.16-37.23,1.01
	c-2.36-0.03-4.23-0.01-6.4,0.38c-5.68,1.02-11.41,1.77-15.85-0.46c-2.31,0.66-4.38,1.77-6.3,1.71c-13.51-0.45-27.58,0.75-39.79-3.93
	c-2.4-0.92-6.62-0.6-10.02-0.7C404.32,52.75,400.7,52.83,395.2,52.83z"/>
<path class="st0" d="M377.72,27.32c-2.14,0.31-4.3,0.9-6.41,0.87c-11.16-0.17-22.3-0.72-33.45-0.7c-19.2,0.03-38.42,0.22-57.59,0.73
	c-4.31,0.12-8.78,1.56-12.62,2.85c-6.04,2.02-11.4,4.6-17.44,6.62c-6.12,2.04-12.78,3.04-20.39,2.62
	c-9.85-0.55-19.82-0.52-29.72-0.8c-2.01-0.06-3.99-0.44-5.78-1.41c1.68,0,3.37-0.05,5.05,0.01c12.44,0.39,24.92,0.42,37.04-1.19
	c5.3-0.71,10.8-1.95,15.04-3.72c5.97-2.5,13-4.23,18.28-7.31c1.91-1.11,6.35-1.4,9.64-1.39c25.85,0.09,51.7,0.36,77.55,0.52
	c4.01,0.03,8.03-0.37,12.04-0.3c2.88,0.05,5.73,0.54,8.6,0.84C377.61,26.13,377.67,26.73,377.72,27.32z"/>
<path class="st0" d="M578.09,46.08c-2.72-3.69-2.72-3.69,3.98-7.12c-0.86-0.86-2.33-1.76-2.72-2.78c-2.02-5.17-8.57-6.19-17.41-5.98
	c-11.13,0.26-22.29,0.06-33.82,0.06c-1.06-2.6,2.4-3.41,6.27-3.53c8.98-0.29,17.99-0.4,26.98-0.43c9.27-0.03,17.24,1.11,20.94,6.45
	c1.11,1.59,4.15,2.81,6.4,4.15c4.07,2.42,3.85,4.31-1.15,6.2C584.78,44.13,581.7,44.95,578.09,46.08z"/>
<path class="st0" d="M525.59,29.98c-18.78,1.45-37.25-0.06-55.67-0.04c-0.42,0-0.85-0.75-1.61-1.49c1.51-0.39,2.75-0.99,4.04-1.01
	c11.66-0.19,23.33-0.25,34.99-0.41c3.07-0.04,6.13-0.3,9.19-0.44C521.53,26.36,522.7,26.76,525.59,29.98z"/>
<path class="st0" d="M305.56,55.16c21.27-4.15,43.09-4.67,65.05-4.5c0.19,0.4,0.38,0.8,0.57,1.2c-1.63,0.32-3.22,0.86-4.9,0.92
	c-9.34,0.35-18.71,0.47-28.04,0.88c-9.87,0.44-19.7,1.14-29.57,1.69C307.66,55.42,306.6,55.24,305.56,55.16z"/>
<path class="st0" d="M404.81,27.97c-9.35,1.52-17.01,0.34-25.02-0.06C385.67,24.44,396.52,24.25,404.81,27.97z"/>
<path class="st0" d="M373.25,51.4c7.39-1.88,13.81-0.76,20.21-1.16C390.64,53.66,383.45,54.16,373.25,51.4z"/>
<path class="st0" d="M284.83,54.49c4.81,0,9.63,0,15.88,0C293.9,56.35,292.95,56.35,284.83,54.49z"/>
<path class="st0" d="M71.59,53.64c-6.62-0.63-13.25-1.25-19.87-1.88c6.95-0.34,13.86-0.57,19.71,1.95L71.59,53.64z"/>
<path class="st0" d="M28.01,49.37c-3.78-0.69-7.57-1.38-11.35-2.07c0.18-0.27,0.36-0.55,0.54-0.83c3.71,0.65,7.43,1.3,11.13,1.95
	C28.22,48.75,28.11,49.06,28.01,49.37z"/>
<path class="st0" d="M71.42,53.71c6.54,0.13,13.07,0.27,19.6,0.4c-0.05,0.35-0.11,0.7-0.17,1.04c-6.39-0.52-12.79-1.04-19.23-1.54
	C71.59,53.64,71.42,53.71,71.42,53.71z"/>
<path class="st0" d="M197.68,57.47c1.97,0,3.93,0,5.9,0c0.11,0.17,0.21,0.35,0.32,0.52c-1.1,0.24-2.18,0.61-3.32,0.69
	c-1.01,0.07-2.1-0.17-3.16-0.28C197.52,58.09,197.6,57.78,197.68,57.47z"/>
<path class="st0" d="M155.92,57.36c1.6,0.12,3.2,0.25,4.81,0.37c-0.09,0.28-0.18,0.57-0.26,0.85c-1.6-0.17-3.19-0.34-4.78-0.5
	C155.76,57.83,155.84,57.6,155.92,57.36z"/>
<path class="st0" d="M146.88,58c-2.07,0-4.14,0-6.22,0c0-0.12,0-0.24,0-0.37c2.04,0,4.08,0,6.12,0
	C146.81,57.75,146.84,57.88,146.88,58z"/>
<path class="st0" d="M187.94,58.61c-1.35-0.19-2.69-0.39-4.04-0.58c0.08-0.21,0.17-0.42,0.25-0.64c1.39,0.13,2.78,0.27,4.16,0.4
	C188.19,58.06,188.07,58.34,187.94,58.61z"/>
<path class="st0" d="M105.87,55.43c1.45,0.07,2.91,0.14,4.36,0.22c-0.01,0.05-0.01,0.09-0.01,0.13c-1.53,0-3.07,0-4.61,0
	C105.69,55.67,105.78,55.55,105.87,55.43z"/>
</svg>
