<?xml version="1.0" encoding="utf-8"?>
<!-- Generator: Adobe Illustrator 23.0.1, SVG Export Plug-In . SVG Version: 6.00 Build 0)  -->
<svg version="1.1" id="Layer_4" xmlns="http://www.w3.org/2000/svg" xmlns:xlink="http://www.w3.org/1999/xlink" x="0px" y="0px"
	 viewBox="0 0 619.38 74.92" style="enable-background:new 0 0 619.38 74.92;" xml:space="preserve">
<style type="text/css">
	.st0{fill-rule:evenodd;clip-rule:evenodd;fill:#FFFFFF;}
</style>
<path class="st0" d="M4.23,33.96c12.98-3.77,26.31-6.1,39.96-8.02c2.3-0.32,4.65-0.82,5.53,0.81c0.84,1.56-1.34,1.94-3.81,2.24
	c-11.43,1.42-21.94,4.02-32.44,6.7c-3.12,0.79-5.4,1.56-4.99,3.55c0.44,2.1-1.08,4.61,4.23,5.7c4.46,0.92,8.84,2.07,13.47,2.58
	c7.74,0.84,15.66,1.25,23.5,1.85c0.28,0.02,0.62-0.02,0.84,0.06c7.99,2.66,16.5,1.08,24.9,0.92c8.69-0.16,17.41,0.17,26.11,0.1
	c3.36-0.03,6.7-0.56,10.04-0.87c10.43-0.95,20.6-2.82,31.56-1.59c3.36,0.38,7.26-0.71,10.78-0.51c10.38,0.57,20.7,1.45,31.03,2.22
	c1.36,0.1,3.02,0.66,3.96,0.42c7.05-1.85,13.94,0.44,20.89,0.09c0.78-0.04,1.84,0.1,2.39,0.37c9.11,4.38,21.93,3.38,32.45,6
	c5.9,1.47,13.87,0.69,20.91,0.92c14.32,0.47,27.65-2.08,41.33-3.61c4.69-0.52,9.44-1,14.21-1.21c1.95-0.09,4.05,0.6,6.75,1.04
	c1.77-2,5.52-2.45,9.94-2.59c4.17-0.14,8.3-0.74,12.4-1.25c16.11-2,32.28-3,48.82-1.47c4.37,0.4,8.93,0.35,13.4,0.36
	c4.1,0.01,7.88,0.21,10.83,2.51c-7.45,1.79-15.14,1.95-22.31,1.15c-11.38-1.27-22.64-0.34-33.93-0.38
	c-3.82-0.01-7.6,1.06-11.48,1.43c-14.95,1.41-29.93,2.72-44.88,4.1c-2.18,0.2-4.27,0.66-6.43,0.93c-5.99,0.75-12.18,1.2-17.94,2.26
	c-9.96,1.83-20.12,0.69-30.12,0.82c-6.31,0.08-12.7-1.28-19.02-2.04c-1.92-0.23-3.73-0.8-5.66-0.91c-8.98-0.49-17.1-1.85-22.01-5.37
	c-5.32,0.11-9.64,0.25-13.97,0.28c-9.94,0.08-19.8-0.14-29.29-1.99c-2.04-0.39-4.42-0.44-6.64-0.42
	c-8.58,0.07-17.14-0.82-25.77,0.09c-2.59,0.27-5.52-0.29-8.33-0.48c-7.67,2.53-15.53,4.62-24.84,0.89c0.14,1,0.23,1.64,0.35,2.52
	c-1.71,0.08-3.32,0.2-4.94,0.21c-6.73,0.06-13.48,0.19-20.21,0.09c-9.14-0.14-18.31-0.61-27.36-1.13
	c-4.43-0.25-9.09-0.43-13.48-0.92c-7.32-0.82-14.58-1.97-21.55-3.38C4.72,47.27,2.66,43.26,2.74,38.92
	C2.78,37.19,3.75,35.47,4.23,33.96z"/>
<path class="st0" d="M90.61,21.57c1.18-0.82,1.41-1.18,1.85-1.26c8.11-1.53,16.25-3.01,24.36-4.55c1.83-0.35,3.59-0.81,5.31-1.28
	c1.47-0.41,2.82-1.27,4.29-1.31c8.46-0.23,16.27-2.13,24.56-2.52c8.69-0.41,17.51-0.13,26.26-0.23c3.06-0.03,6.17-0.55,9.17-0.39
	c12.17,0.65,24.07,1.4,35.97,3.64c12.79,2.41,23.91,5.87,35.12,9.6c7.56,2.52,15.66,4,25.42,3.26c9.69-0.74,19.73-0.23,29.6-0.34
	c2.77-0.03,5.71-0.06,8.26-0.53c9.82-1.83,9.78-1.9,18.58,0.67c2.39-3.38,8.45-3.85,14.11-4.42c8.54-0.87,16.45-3.24,25.5-2.86
	c11.47-3.37,24.14-1.86,36.31-2.37c0.43-0.02,0.92,0.28,1.7,0.53c-0.92,1.14-1.86,2.3-2.58,3.19c-11.46,0.8-22.7,1.36-33.75,2.42
	c-9.35,0.9-18.48,2.43-27.74,3.63c-11.67,1.51-23.29,3.22-35.52,3.06c-1.78-0.02-3.6,0.33-5.37,0.58c-1.05,0.15-2.04,0.61-3.06,0.6
	c-12.56-0.07-25.16-0.03-37.7-0.4c-5.99-0.18-11.14-1.89-16-3.81c-16.02-6.31-33.76-10.81-53.72-12.54
	c-6.27-0.54-12.81-0.4-19.22-0.3c-12.76,0.2-25.65,0.1-38.21,1.08c-9.37,0.73-18.28,2.96-27.42,4.5c-7.17,1.21-14.33,2.45-21.59,3.5
	C94.02,22.87,92.41,22.05,90.61,21.57z"/>
<path class="st0" d="M562.01,44.06c8.16-0.06,16.01-1.07,23.25-2.88c2.53-0.63,3.83-2.6,5.6-3.88c-4.95-3.63-11.58-3.27-17.6-3.34
	c-13.57-0.14-27.14,0.08-40.7-0.09c-3.86-0.04-7.84-0.68-11.45-1.44c-2.13-0.45-3.64-1.69-5.58-2.65c-1.69,0.21-4.79,1.15-7.08,0.77
	c-16.23-2.68-32.91-4.16-49.67-5.62c-12.73-1.11-25.26-2.86-38.4-4.39c-0.2-1.08-0.39-2.21-0.61-3.37c1.02-0.22,1.78-0.54,2.54-0.53
	c2.54,0.02,5.14,0.01,7.61,0.29c8.28,0.91,16.48,2,24.76,2.91c4.38,0.48,8.86,0.71,13.29,1.04c0.84,0.06,1.7,0.09,2.55,0.1
	c4.71,0.05,7.65,2.5,13.41,1.98c4.82-0.43,10.34,1.05,15.49,1.78c4.9,0.7,9.69,1.6,14.58,2.29c10.36,1.45,20.9,1.94,31.68,2.08
	c10.13,0.14,20.22-0.35,30.28-0.06c4.59,0.13,9.43,1.04,13.53,2.2c10.91,3.09,9.25,9.34,3.4,13.27c-0.82,0.55-2.14,1.13-3.37,1.23
	c-7.43,0.59-14.89,1.18-22.38,1.5c-3.97,0.17-6.71-0.77-5.2-3.25L562.01,44.06z"/>
<path class="st0" d="M561.94,43.98c-0.22,2.74-3.55,3.39-8.06,3.15c-2.51-0.13-5.07-0.27-7.49-0.63c-4.14-0.62-8.08-0.69-12.39-0.22
	c-3.21,0.34-7.25,0.65-10.01-1.28c4.35-1.12,30.78-1.65,38.02-0.91C562.01,44.06,561.94,43.98,561.94,43.98z"/>
<path class="st0" d="M88.43,24.7c-12.06,0.97-24.11,1.95-36.1,2.92c4.74-3.78,9.76-4.78,17.29-3.54c1.48,0.24,3.73,0.5,4.69,0.12
	C79.2,22.24,83.85,23.67,88.43,24.7z"/>
<path class="st0" d="M518.58,44.79c-5.31,1.61-14.62,1.59-19.77-0.04C504,43.07,510.8,43.09,518.58,44.79z"/>
<path class="st0" d="M460.2,51.32c8.85-4,11.29-4.53,17.1-3.77C472.74,49.87,468.06,51.15,460.2,51.32z"/>
<path class="st0" d="M495.93,44.02c-4.42,3.53-11.28,0.83-16.07,3.45C481.93,43.53,481.93,43.53,495.93,44.02z"/>
<path class="st0" d="M433.79,50.61c8.26,0.19,16.51,0.39,24.76,0.58C450.1,52.99,441.92,51.55,433.79,50.61z"/>
</svg>
