<?xml version="1.0" encoding="utf-8"?>
<!-- Generator: Adobe Illustrator 23.0.1, SVG Export Plug-In . SVG Version: 6.00 Build 0)  -->
<svg version="1.1" id="Layer_4" xmlns="http://www.w3.org/2000/svg" xmlns:xlink="http://www.w3.org/1999/xlink" x="0px" y="0px"
	 viewBox="0 0 621.92 87.19" style="enable-background:new 0 0 621.92 87.19;" xml:space="preserve">
<style type="text/css">
	.st0{fill-rule:evenodd;clip-rule:evenodd;fill:#FFFFFF;}
</style>
<path class="st0" d="M309.28,25.13c4.92-1.28,9.84-1.05,14.79-0.58c1.18,0.11,2.38-0.73,3.56-0.65c2.17,0.14,4.28-0.46,6.42-0.75
	c6.71-0.9,13.45-1.22,20.19-1.67c2.55-0.17,5.12,0.1,7.66-0.21c5.03-0.6,9.49,2.22,13.82,6.05c0.62,0.55,1.32,1.23,1.99,1.23
	c4.27,0.01,8.53-0.15,12.8-0.29c0.28-0.01,0.63-0.21,0.84-0.54c1.68-2.66,3.75-3.34,5.94-3.49c0.29-0.02,0.68,0.11,0.85-0.16
	c3.01-4.74,7.23-4.5,10.73-7.36c2.31-1.89,5.28-1.99,7.95-1.99c5.03,0,10.07,0.64,15.1,1.05c4.25,0.34,8.51,0.57,12.76,1.15
	c3.4,0.47,6.65,2.14,9.65,4.93c1.99,1.84,3.93,3.84,5.87,5.83c3.79,3.9,7.95,5.58,12.33,5.83c3.19,0.18,6.38,0.07,9.57,0.32
	c1.26,0.1,2.5,0.85,3.66,1.27c0.9-0.45,1.81-1.2,2.76-1.33c3.47-0.47,6.95-0.8,10.43-1.07c6.63-0.52,13.25-1.4,19.87-1.31
	c4.76,0.06,9.5-0.19,14.24-0.56c4.72-0.37,9.44-0.97,14.17-1.13c4.1-0.14,8.16-0.16,12.28,1.36c3.1,1.14,6.33,2.23,9.7,1.47
	c3.44-0.77,6.99,0.03,10.49-0.19c4.8-0.3,9.58-0.89,14.38-1.4c1.96-0.21,3.88,0.45,5.9,0.07c1.85-0.35,3.96,1.4,5.75,2.92
	c0.97,0.82,1.85,2.86,1.33,5.35c-0.27,1.3-0.3,2.81-0.7,3.97c-1.81,5.28-3.58,10.63-5.63,15.63c-1.26,3.07-2.66,6.05-5.08,7.23
	c-1.37,0.67-2.41,3.59-3.75,3.96c-3.9,1.09-7.61,3.85-11.71,3.36c-3.89-0.46-7.82,0.1-11.73-0.21c-2.13-0.17-4.24-1.23-6.36-1.89
	c-1.3-0.4-2.32-1.4-2.74-4.26c-1.73,2.38-3.21,0.7-4.5-0.81c-4.84-5.64-9.97-4.68-15.18-2.27c-1.08,0.5-2.08,1.53-3.15,2.03
	c-1.46,0.68-3.05,1.87-4.44,1.45c-4.67-1.4-9.29-3.37-13.91-5.23c-2.22-0.9-4.41-2.05-6.73-3.15c0.14-2.12,1.25-2.1,2.05-2.14
	c3.2-0.17,6.3,0.74,9.39,2.24c2.73,1.33,5.61,2.65,8.4,2.52c2.77-0.13,5.55-1.86,8.25-3.34c1.7-0.93,3.3-1.8,5.1-1.1
	c0.56,0.22,1.2,0.13,1.77-0.09c1.92-0.74,3.49-0.28,5.12,2c1.18,1.65,2.95,2.1,4.46,3.05c2.21,1.39,4.41,2.86,6.64,4.1
	c5.11,2.82,10.39,1.96,15.61,1.79c3.26-0.11,6.53-0.89,9.77-1.56c0.88-0.18,1.69-1.2,2.57-1.63c1.13-0.55,2.3-0.89,3.81-1.46
	c0.3-0.7,0.79-2.42,1.57-3.55c2.3-3.33,4.2-7.1,5.56-11.71c1.05-3.6,2.99-6.48,3.06-11.38c-1.45-0.28-2.94-0.51-4.41-0.88
	c-2.15-0.55-4.43,0.62-6.37,0.01c-4.16-1.3-8.08,1.69-12.17,0.63c-1.74-0.45-3.61,0.73-5.44,0.9c-3.46,0.32-6.93,0.6-10.4,0.6
	c-2.2,0-4.54,0.6-6.44-2.24c-0.19-0.29-0.58-0.32-0.88-0.31c-5.23,0.25-10.46,0.58-15.68,0.78c-4.07,0.15-8.18-0.14-12.18,0.26
	c-3.44,0.35-6.9,0.01-10.33,0.59c-0.41,0.07-0.88,0.36-1.23,0.13c-3.29-2.15-6.55,0.17-9.82,0.21c-3.3,0.04-6.6,0.44-9.88,0.96
	c-2.12,0.34-4.21,1.97-6.34,0.08c-2.61,2.39-5.42,0.9-8.12,0.96c-4.83,0.11-9.66-0.21-14.49-0.54c-4.7-0.32-8.82-3.81-12.49-8.31
	c-5.18-6.33-10.94-8.61-17.13-8.99c-2.25-0.14-4.54,0.34-6.65-1.64c-0.38-0.36-1.01-0.23-1.47-0.01c-3.47,1.6-7.02,0.94-10.43,0.12
	c-6.88-1.64-13.24,0.67-19.57,4.99c-4.06,2.78-8.23,5.56-12.51,6.88c-5.98,1.84-12.08,1.95-17.75-3.17
	c-2.12-1.91-4.38-3.04-6.82-2.86c-0.51,0.04-1.05,0.07-1.54-0.16c-1.99-0.92-3.9-1-6-0.29c-2.37,0.81-4.91,0.34-7.37,0.31
	c-6.88-0.1-13.71,1.28-20.55,2.13c-1.8,0.22-3.63-0.41-5.44-0.57c-0.36-0.03-0.73,0.27-1.1,0.4c-0.78,0.28-1.6,0.91-2.35,0.75
	c-2.74-0.56-5.45-0.31-8.19,0.12c-1.19,0.19-2.42-0.45-3.57-0.69c-0.11-1.26-0.18-2.1-0.25-2.94L309.28,25.13z"/>
<path class="st0" d="M174.31,39.84c-3.49,0.75-5.79-2.5-8.42-3.69c-0.95-0.43-1.87-1.26-2.83-1.44c-6.03-1.12-12.07-2.04-18.09-3.19
	c-2.91-0.55-5.8-1.55-8.71-2.13c-0.64-0.13-1.32,0.79-2.01,1.04c-2.04,0.73-4.05,3.05-6.24,0.2c-1.71,3.04-3.79,3.74-6.11,2.89
	c-0.39-0.15-0.83-0.34-1.21-0.19c-4.95,1.96-10.01,1.44-15.02,1.96c-3.53,0.37-7.01,1.85-10.53,2.56c-1.73,0.35-3.51,0.06-5.88,0.06
	c0.73-1.62,1.06-2.89,1.63-3.51c0.67-0.73,1.53-1.1,2.34-1.27c5.57-1.2,11.15-3.02,16.73-3.2c3.49-0.11,6.99-0.8,10.55-0.37
	c3.38,0.41,6.85-1.9,10.3-2.64c3.96-0.85,7.93-1.76,11.88,0.61c0.97,0.58,2.21-0.29,3.23,0.17c4.46,2,9.11,0.4,13.55,2.11
	c3.19,1.23,6.33,2.78,9.48,4.3c1.17,0.56,2.28,1.44,3.86,2.46c-0.23-3.89-0.45-7.1-0.6-10.33c-0.1-2.07-0.18-4.17-0.1-6.24
	c0.04-0.9,0.42-2.28,0.83-2.53c1.13-0.66,1.43-1.84,1.73-3.68c0.39-2.34,3.74-4.03,5.08-2.85c0.27,0.24,0.34,1.16,0.62,2.21
	c-1.31,0.97-2.51,1.87-3.72,2.73c-2.02,1.43-3.16,3.78-2.88,7.7c0.21,2.94,0.42,5.89,0.52,8.85
	C174.38,34.79,174.31,37.16,174.31,39.84z"/>
<path class="st0" d="M55.19,68.88c-0.27-2.18-0.28-3.69,1.09-3.83c0.31-0.03,0.62,0.05,0.93,0.04c2.55-0.03,5.03,1.13,7.66,0.6
	c2.62-0.52,5.4-0.39,7.97,0.57c5.23,1.94,10.81,1.35,15.66,6.13c1.34,1.32,2.84,1.6,4.47,1.22c1.39-0.32,2.85,0.31,4.28,0.33
	c1.1,0.01,2.19-0.3,3.29-0.43c3.86-0.44,7.72-0.85,11.58-1.3c0.3-0.03,0.64-0.07,0.87-0.33c3.5-4.02,7.65-4.78,11.59-6.16
	c3.32-1.16,6.8-0.91,10.21-1.32c1.53-0.18,3.05-0.55,4.58-0.64c0.59-0.04,1.19,0.45,1.78,1.18c-1.85,2.31-3.51,5.13-6.01,3.03
	c-0.18-0.15-0.47-0.42-0.56-0.31c-2.22,2.94-4.75,0.6-7.07,1.27c-2.67,0.78-5.27,2.36-7.89,3.63c-0.29,0.14-0.53,0.6-0.82,0.7
	c-3.16,1.12-6.22,2.91-9.35,4.19c-1.68,0.69-3.01-0.4-4.04-3.86c-0.9,6.24-3.42,5.29-5.67,4.88c-1.2-0.22-2.33-0.17-3.53-0.11
	c-3.23,0.15-6.51,0.07-9.52-2.78c-3.78-3.57-8.08-3.76-12.22-4.69c-2.74-0.62-5.64,0.23-8.3-0.83
	C62.55,68.62,58.86,70.97,55.19,68.88z"/>
<path class="st0" d="M215.79,78.93c0.18-2.63,0.68-4.15,2.27-4.37c2.14-0.3,4.26-1.09,6.4-1.49c1.41-0.26,2.86,0.03,4.25-0.38
	c1.3-0.38,2.51-1.81,3.8-2.01c5.95-0.92,11.75-3.56,17.84-3.07c3.38,0.27,6.84-1.88,10.24-3.18c2.6-0.99,5.17-2.31,7.73-3.55
	c2.1-1.01,4.01,0.87,6.01,1c1.91,0.12,3.86-0.91,5.74-0.55c1.27,0.24,2.35,1.12,3.72,0.15c0.85-0.61,2.01,0.04,3.2,0.15
	c0.23,1.3,0.45,2.58,0.8,4.6c-1.86-0.37-3.51-0.33-5-1.13c-0.8-0.43-1.3-0.8-2.19-0.33c-1.13,0.6-2.43,0.37-3.65,0.42
	c-3.28,0.13-6.6-0.27-9.83,0.46c-2.59,0.58-5.06,2.57-7.61,3.8c-4.49,2.16-9.06,2.4-13.72,2.22c-3.24-0.13-6.5,1.27-9.74,2.17
	c-3.62,1.01-7.21,2.83-10.85,3.21C222.1,77.37,219.22,80.23,215.79,78.93z"/>
<path class="st0" d="M22.16,55.8c0.25-2.88,1.59-3.29,2.91-3.85c0.77-0.33,1.53-0.82,2.29-1.23c0.78-0.42,1.56-1.12,2.35-1.19
	c1.51-0.12,3.25,0.92,4.5-0.03c1.22-0.92,2.34-2.44,3.73-2.92c1.18-0.4,2.22-0.25,3.04,2.53c-5.74,2.84-11.73,3.32-17.01,7.62
	c0.03,0.58,0.06,1.17,0.09,1.75c2.06,0.76,4.11,1.78,6.2,2.22c4.58,0.96,9.19,1.66,13.78,2.37c1.32,0.2,2.4,0.67,2.87,3.36
	c-1.94,2.21-3.97,1.4-5.9,0.61c-1.39-0.57-2.69-1.32-4.15-0.74c-0.48,0.19-1.02-0.04-1.53-0.17c-2.88-0.73-5.76-1.42-8.63-2.27
	c-0.89-0.27-1.8-0.81-2.6-1.54C22.54,60.89,21.92,58.57,22.16,55.8"/>
<path class="st0" d="M509.77,57.89c-0.38,2.99-1.69,2.81-2.75,2.77c-3.88-0.16-7.76-0.59-11.64-0.8c-3.75-0.2-7.56,0.35-11.24-0.55
	c-3.22-0.79-6.4-0.9-9.61-1.02c-2.65-0.09-5.3-0.38-7.94-0.66c-1.32-0.14-1.32-0.22-1.35-3.85c5,0.53,9.97,1.02,14.95,1.58
	c4.9,0.55,9.8,1.42,14.71,1.69C499.84,57.31,504.82,56.1,509.77,57.89z"/>
<path class="st0" d="M309.27,25.08c-1.68,3.44-3.98,4.32-6.49,2.46c-0.55-0.4-1.09-1.33-1.61-1.26c-6.87,0.87-13.26-2.98-19.73-5.85
	c-3.67-1.63-7.27-3.65-10.94-5.3c-1.05-0.47-1.7-1.06-1.67-3.73c3.51,0.2,6.78,1.74,9.9,4.29c0.98,0.8,1.72,2.29,3.03,1.5
	c0.48-0.29,1.19,0.34,1.77,0.69c5.89,3.58,12.22,3.49,18.2,6.33c1.23,0.58,2.66-0.14,3.98,0c1.19,0.13,2.37,0.62,3.56,0.94
	C309.28,25.13,309.27,25.08,309.27,25.08z"/>
<path class="st0" d="M177.08,69.08c2.75-1.82,4.63-0.05,6.58,0.8c1.05,0.46,2.12,0.78,3.19,1.1c0.49,0.15,1,0.09,1.5,0.24
	c2.88,0.87,5.65,2.75,8.67,2.27c0.53-0.08,1.09,0.76,1.65,1.11c0.44,0.28,0.98,0.86,1.33,0.64c3.06-1.93,6.13,0.09,9.18-0.17
	c1.79-0.15,3.6,0.04,5.34,0.07c0.47,2.96-0.01,4.04-1.39,3.96c-4.41-0.25-8.83-0.22-13.23-0.82c-3.63-0.5-7.25-1.54-10.83-2.7
	c-3.52-1.15-7.01-2.7-10.49-4.21C178.14,71.18,177.81,70.22,177.08,69.08z"/>
<path class="st0" d="M311.08,67.02c-1.35,1.74-2.82,1.92-4.55,1.55c-4.66-0.99-9.36-1.62-14.04-2.39c-1.18-0.19-2.52,0.46-3.3-1.87
	c0.42-2.71,1.72-2.84,2.94-2.58c3.63,0.78,7.3-0.61,10.94,1.69c2.49,1.58,5.33,1.54,8.02,2.23
	C311.09,66.11,311.09,66.57,311.08,67.02z"/>
<path class="st0" d="M412.7,53.87c1.68-2.25,3.74-1.62,5.61-1.77c4.09-0.32,8.19-0.1,12.29-0.02c3.26,0.06,6.53,0.22,9.9,0.35
	c-0.12,1.29-0.2,2.12-0.25,2.63c-3.8,0-7.45,0-11.1-0.01c-0.3,0-0.6-0.15-0.9-0.14c-4.32,0.23-8.63,0.48-12.94,0.7
	c-1.01,0.05-2.14,0.45-2.57-1.84L412.7,53.87z"/>
<path class="st0" d="M442,52.79c1.32-0.16,2.72-0.53,4.1-0.45c5.38,0.32,10.77,0.8,16.15,1.21c1.09,0.08,2.1,0.32,1.82,3.36
	c-1.57,0-3.14,0.09-4.71-0.02c-1.5-0.1-2.99-0.5-4.49-0.61c-3.84-0.28-7.68-0.49-11.52-0.69C442.4,55.54,441.69,55.23,442,52.79z"/>
<path class="st0" d="M367.27,60.23c-0.57,0.5-1.11,1.21-1.71,1.47c-3.22,1.37-17.16,3.12-18.75,2.45
	C348.95,61.68,363.88,58.09,367.27,60.23z"/>
<path class="st0" d="M368.31,58.79c0.74-0.54,1.48-1.55,2.22-1.53c3.43,0.08,6.7-1.65,10.07-2.22c0.42-0.07,0.89,0.58,1.79,1.22
	c-2.44,3.07-5,2.42-7.28,2.97c-2.21,0.54-4.49,2.18-6.76,0.76C368.33,59.59,368.32,59.19,368.31,58.79z"/>
<path class="st0" d="M388.75,55.48c0.85-0.56,1.68-1.17,2.54-1.68c0.77-0.46,1.61-1.28,2.35-1.11c3.15,0.74,6.26-0.58,9.39-0.35
	c0.9,0.07,1.63,0.4,1.62,2.69c-0.52,0.14-1.09,0.52-1.62,0.4c-4.19-0.98-8.32,0.66-12.48,0.63c-0.57,0-1.14-0.48-1.72-0.74
	L388.75,55.48z"/>
<path class="st0" d="M48.79,45.01c0.52-0.66,1-1.8,1.55-1.92c4.11-0.89,8.24-1.58,12.76-2.4c-0.84,2.36-1.88,3.07-2.88,3.34
	c-3.33,0.9-6.69,1.58-10.04,2.29c-0.38,0.08-0.77-0.1-1.16-0.16C48.94,45.78,48.86,45.4,48.79,45.01z"/>
<path class="st0" d="M311.73,70.08c0.25-3.03,1.22-4.08,2.81-3.42c1.26,0.52,2.49,1.32,3.76,1.72c1.23,0.39,2.5,0.42,3.78,0.81
	C318.67,69.85,315.32,72.75,311.73,70.08z"/>
<path class="st0" d="M54.28,67.26c-0.77,0.63-1.53,1.69-2.32,1.78c-0.97,0.11-2.02-0.38-2.94-1.03c-0.4-0.29-0.81-1.72-0.72-2.47
	c0.07-0.58,0.94-1.4,1.37-1.28c1.54,0.43,3.04,1.21,4.56,1.86C54.25,66.49,54.27,66.87,54.28,67.26z"/>
<path class="st0" d="M204.59,13.57c1.31-2.88,2.74-2.28,3.63-1.43c1.89,1.79,3.91,2.55,5.92,3.53c0.65,0.31,1.24,1.04,1.73,2.12
	c-1.82-0.82-3.63-1.75-5.47-2.45C208.59,14.65,206.74,14.21,204.59,13.57z"/>
<path class="st0" d="M195.98,9.65c0,2.62-0.76,3.06-1.65,2.89c-2.06-0.4-4.32,0.88-6.84-1.93C190.72,8.49,193.31,9.42,195.98,9.65z"
	/>
<path class="st0" d="M388.84,55.34c-3.15,2.45-4.1,2.51-6.31,0.19c2.04-2.42,4.26-1.73,6.74-2.08c-0.24,0.96-0.38,1.5-0.52,2.04
	C388.75,55.48,388.84,55.34,388.84,55.34z"/>
<path class="st0" d="M203.5,10.93c-0.5,1.07-0.76,2.14-1.06,2.17c-1.3,0.13-2.62,0.07-3.91-0.19c-0.33-0.07-0.6-1.14-0.9-1.75
	c0.38-0.44,0.77-1.28,1.13-1.24C200.22,10.09,201.67,10.52,203.5,10.93z"/>
<path class="st0" d="M47.64,47.02c-1.83,0.65-3.55,1.26-5.23,1.85c-0.93-2.9,0.1-3.44,1.11-3.94
	C45.93,43.76,46.53,44.02,47.64,47.02z"/>
<path class="st0" d="M70.43,42.37c-2.05,0.19-4.09,0.39-6.57,0.63C66.25,39.58,67.52,39.36,70.43,42.37z"/>
<path class="st0" d="M171.12,63.27c1.92,1.86,4.65,1.64,6.08,6.9C173.94,69.62,172.58,66.32,171.12,63.27z"/>
<path class="st0" d="M412.73,53.77c-1.86,2.99-4.04,1.67-6.18,1.37c1.32-3.74,3.05-4.06,6.13-1.24
	C412.7,53.87,412.73,53.77,412.73,53.77z"/>
<path class="st0" d="M341.43,67.66c-0.36-2.2-0.61-3.69-0.84-5.1c0.49-0.37,0.67-0.64,0.84-0.63c1.07,0.08,2.53-0.28,2.72,2.05
	C344.4,67.12,342.63,66.27,341.43,67.66z"/>
<path class="st0" d="M181.69,12.54c1.17-5.11,3.34-2.36,4.8-3.25c0.57,1.64,0.7,2.99-0.54,3.21
	C184.75,12.71,183.52,12.54,181.69,12.54z"/>
<path class="st0" d="M72.75,40.89c1.3-1.23,1.98-0.65,2.42,1.56C73.96,43.34,73.22,43.04,72.75,40.89z"/>
<path class="st0" d="M227.3,29.88c-0.72-0.87-1.44-1.74-2.35-2.83C226.84,26.93,226.84,26.93,227.3,29.88z"/>
</svg>
