<?xml version="1.0" encoding="utf-8"?>
<!-- Generator: Adobe Illustrator 23.0.1, SVG Export Plug-In . SVG Version: 6.00 Build 0)  -->
<svg version="1.1" id="Layer_1" xmlns="http://www.w3.org/2000/svg" xmlns:xlink="http://www.w3.org/1999/xlink" x="0px" y="0px"
	 viewBox="0 0 800 800" style="enable-background:new 0 0 800 800;" xml:space="preserve">
<style type="text/css">
	.st0{fill:#44695A;}
</style>
<path class="st0" d="M295.33,309.78c-1.21,1.37-2.39,2.75-3.55,4.17c-2.73,2.57-5.39,5.2-7.98,7.9
	c-5.64,5.86-10.8,12.12-15.73,18.59c-9.55,12.52-17.36,26.37-22.96,41.1c-2.74,7.2-4.69,14.71-6.04,22.28
	c-1.45,8.21-2.19,16.53-1.99,24.86c0.1,4.37,0.58,8.7,1.17,13.03c0.53,3.96,1.3,7.87,2.36,11.72c1.12,4.05,2.7,7.94,4.34,11.8
	c1.53,3.61,3.26,7.11,5.2,10.51c3.93,6.91,8.86,13.31,14.27,19.12c5.43,5.84,11.58,10.88,17.91,15.7c1.68,1.28,3.38,2.51,5.11,3.71
	c2.37,2.52,4.83,4.97,7.37,7.32c5.73,5.31,11.89,10.16,18.16,14.81c6.2,4.61,12.67,8.86,19.37,12.72c6.96,4,14.25,7.33,21.66,10.41
	c7.17,2.97,14.57,5.42,22.16,7.06c8.01,1.73,16.25,2.63,24.43,2.97c7.9,0.33,15.83-0.03,23.67-1.05
	c15.99-2.07,31.73-6.39,46.86-11.93c7.55-2.77,14.97-5.97,22.15-9.59c6.82-3.44,13.39-7.39,19.77-11.59
	c6.69-4.41,13.12-9.21,19.4-14.19c5.99-4.75,11.75-9.78,17.3-15.05c11.4-10.83,21.76-22.79,30.9-35.57
	c9.23-12.9,16.79-27.17,21.9-42.2c2.67-7.84,4.17-15.96,5.21-24.16c0.98-7.73,0.97-15.53,0.02-23.26
	c-1.01-8.26-2.79-16.34-5.29-24.27c-2.42-7.69-5.55-15.17-9.12-22.39c-3.33-6.74-7.26-13.17-11.61-19.29
	c-4.64-6.54-9.74-12.79-15.29-18.57c-5.54-5.77-11.71-10.83-18.12-15.59c-6.02-4.46-12.46-8.37-19.22-11.59
	c-7.33-3.48-15.02-6.1-22.88-8.06c-8.04-2.01-16.23-3.23-24.43-4.31c-8.82-1.16-17.66-1.81-26.52-2c-0.16-0.36-0.39-0.69-0.69-0.97
	c-2.27-2.13-4.61-4.3-7.14-6.14c-2.93-2.13-6.34-3.07-9.87-3.72c-3.42-0.63-6.88-0.88-10.35-0.88c-3.88,0-7.77,0.3-11.61,0.71
	c-7.86,0.83-15.53,2.6-23.07,4.93c-7.56,2.33-15.04,5.12-22.35,8.15c-14.37,5.96-28.04,13.63-40.77,22.55
	C317,288.24,305.4,298.4,295.33,309.78z M581.3,411.29c-1.29,8.71-3.65,17.14-6.97,25.29c-0.98,2.25-2.03,4.47-3.14,6.66
	c0.68-4.24,1.12-8.52,1.33-12.8c0.11-2.21,0.13-4.43,0.07-6.64c0.31-1.42,0.6-2.84,0.87-4.27c1.38-7.24,2.28-14.6,2.84-21.95
	c0.2-0.92,0.39-1.84,0.56-2.77c1.07-5.75,1.63-11.58,1.4-17.41c1.5,4.16,2.61,8.41,3.29,12.79
	C582.33,397.23,582.14,404.28,581.3,411.29z M563.83,322.77c7.07,9.36,13.03,19.45,17.71,30.21c0.03,0.08,0.06,0.16,0.1,0.23
	c-2.98-4.08-6.36-7.84-10.14-11.2c-1.69-5.31-3.8-10.49-6.17-15.52c-0.84-1.79-1.75-3.54-2.72-5.25
	C563.02,321.75,563.42,322.26,563.83,322.77z M338.92,455c-0.52-0.7-1.03-1.41-1.53-2.13c1.26-5.89,3.04-11.65,5.31-17.24
	c0.34-0.77,0.68-1.54,1.04-2.3c0.04,0.34,0.09,0.68,0.14,1.03c0.48,3.45,1.21,6.83,2.16,10.18c1.14,4.04,2.7,7.93,4.36,11.78
	c2.58,5.99,6.02,11.46,10.02,16.55c-3.56-1.97-6.99-4.16-10.26-6.6C345.99,462.93,342.26,459.17,338.92,455z M359.69,410.48
	c0.02-0.18,0.04-0.37,0.07-0.55c0.23-1.58,0.5-3.15,0.8-4.72c0.57-0.78,1.15-1.55,1.74-2.32c0.09-0.11,0.17-0.22,0.26-0.33
	C361.49,405.16,360.53,407.81,359.69,410.48z M402.27,504.64c-8.31,0.99-16.72,0.99-25.03,0c-0.82-0.13-1.64-0.27-2.45-0.42
	c-0.85-0.43-1.71-0.87-2.55-1.31c-4.69-2.43-9.25-5.12-13.5-8.27c-3.52-2.85-6.64-6.08-9.48-9.61c-0.55-0.74-1.09-1.49-1.61-2.24
	c5.9,3.78,12.28,6.8,18.8,9.37c7.13,2.81,14.67,4.54,22.2,5.84c1.1,0.19,2.19,0.37,3.29,0.54c2.11,1.09,4.26,2.11,6.45,3.06
	c2.14,0.93,4.29,1.81,6.46,2.62C403.99,504.37,403.13,504.51,402.27,504.64z M381.1,463.39c0.05,0.42,0.11,0.84,0.17,1.26
	c-1.93-2.97-3.63-6.07-5.09-9.31c-1.64-4.14-2.78-8.4-3.47-12.81c-0.62-5.55-0.6-11.13,0.03-16.68c0.95-6.08,2.62-11.98,4.91-17.68
	c1.45-3.27,3.1-6.44,4.95-9.49c-1.07,3.26-1.98,6.57-2.78,9.91c-1.05,4.41-1.72,8.87-2.32,13.37
	C375.69,435.76,376.69,450.15,381.1,463.39z M416.48,485.84c-3.33-2.84-6.38-5.98-9.14-9.39c-3.03-4.11-5.55-8.53-7.64-13.2
	c-1.12-2.8-2.09-5.64-2.89-8.52c-0.09-4.3,0.15-8.61,0.65-12.88c1.52-10.06,4.51-19.87,8.36-29.27
	c4.89-11.28,11.18-21.88,18.61-31.68c3.03-3.83,6.24-7.51,9.68-10.98c0.41-0.41,0.83-0.82,1.24-1.23c0.59,0.01,1.17,0.02,1.76,0.04
	c1.25,1.22,2.46,2.49,3.62,3.8c-3.75,2.28-7.24,4.99-10.51,7.88c-2.59,2.3-4.87,4.91-6.99,7.65c-2.57,3.32-4.92,6.75-7.02,10.38
	c-4.01,6.95-6.95,14.59-8.83,22.38c-0.95,3.94-1.52,7.98-1.94,12.01c-0.41,3.9-0.4,7.84,0,11.73c0.4,3.91,1.07,7.77,2.18,11.54
	c1.16,3.91,2.92,7.69,5.08,11.15c4.19,6.68,10.14,12.1,17.31,15.42c1.89,0.87,3.84,1.64,5.83,2.26
	C429.41,485.68,422.94,485.97,416.48,485.84z M402.75,279.61c4.35-0.84,8.72-1.56,13.1-2.18c3.36-0.43,6.73-0.8,10.1-1.12
	c-0.66,0.23-1.32,0.47-1.97,0.71c-1.54,0.57-3.07,1.16-4.59,1.77c-1.06,0-2.13,0.02-3.19,0.04
	C411.7,278.92,407.22,279.2,402.75,279.61z M456.73,428.49c-0.57,3.65-1.44,7.25-2.69,10.72c-0.25-1.06-0.47-2.13-0.65-3.21
	c-0.09-0.84-0.16-1.69-0.21-2.54c1.09-2.3,2.33-4.52,3.72-6.64C456.84,427.38,456.79,427.93,456.73,428.49z M492.31,411.21
	c-0.71,3.18-1.52,6.31-2.42,9.44c-1.63,5.64-3.62,11.23-5.85,16.67c-2.84,6.49-6.46,12.66-10.67,18.35
	c-1.06,1.32-2.17,2.58-3.33,3.79c-0.16-0.06-0.32-0.12-0.49-0.18c-1.89-0.89-3.67-1.93-5.37-3.14c-0.21-0.17-0.41-0.35-0.61-0.53
	c1.24-1.44,2.35-3.03,3.31-4.67c1.06-1.8,1.81-3.8,2.6-5.73c1.39-3.41,2.25-7.08,2.91-10.7c1.35-7.39,1.52-14.92,0.85-22.38
	c0.86-0.45,1.73-0.88,2.62-1.28c2.42-0.92,4.88-1.56,7.43-1.99c2.41-0.24,4.81-0.27,7.23-0.05c0.73,0.14,1.46,0.31,2.18,0.5
	c0,0.05,0.01,0.11,0.01,0.16C492.57,410.06,492.44,410.64,492.31,411.21z M469.09,391.21c0.29-0.25,0.57-0.49,0.87-0.73
	c1.48-1.07,3.02-2.02,4.66-2.83c1.41-0.51,2.84-0.89,4.32-1.17c0.52-0.05,1.04-0.08,1.56-0.1c1.85,1.81,3.59,3.73,5.22,5.74
	c0.19,0.26,0.38,0.53,0.57,0.79c-3.19-0.01-6.39,0.45-9.51,1.01c-2.17,0.39-4.29,1.04-6.35,1.83
	C470.02,394.24,469.58,392.72,469.09,391.21z M531.9,353.03c-0.5-0.68-1-1.36-1.51-2.03c-0.48-1.05-0.99-2.1-1.53-3.13
	c0.29,0.1,0.57,0.21,0.85,0.32c0.95,1.68,1.85,3.4,2.68,5.14C532.23,353.24,532.06,353.13,531.9,353.03z M480.46,288.04
	c9.17,1.36,18.14,3.8,26.72,7.29c7.27,3.21,14.08,7.25,20.45,12.01c4.72,3.75,9.11,7.87,13.02,12.46c-0.03-0.02-0.07-0.04-0.1-0.06
	c-2.64-1.42-5.36-2.69-8.15-3.82c-2.82-2.01-5.71-3.92-8.69-5.7c-4.75-3.7-9.74-7.1-14.96-10.07c-7-4-14.53-7.16-22.08-9.95
	c-2.06-0.76-4.14-1.48-6.22-2.16C480.45,288.04,480.46,288.04,480.46,288.04z M458.73,351.53c5.72,0,11.45,0.4,17.15,1.11
	c10.66,1.55,21.11,4.16,31.1,8.2c2.1,0.91,4.18,1.88,6.24,2.9c1.51,4.16,2.5,8.46,3.17,12.83c0.44,3.75,0.68,7.51,0.72,11.28
	c0.04,4.03-0.28,8.06-0.77,12.06c-0.07,0.44-0.13,0.89-0.2,1.33c-1.07-3.19-2.52-6.3-4.13-9.23c-1.81-3.28-4.13-6.33-6.64-9.11
	c-2.72-3.02-6.03-5.55-9.35-7.87c-2.82-1.96-5.88-3.57-9.03-4.93c-0.4-0.17-0.79-0.34-1.19-0.5c-4.01-3.03-8.36-5.62-12.91-7.79
	c-6.34-3.02-12.99-5.44-19.83-7.03C454.91,353.64,456.8,352.55,458.73,351.53z M449.52,385.91c0.31,0.61,0.61,1.23,0.9,1.85
	c-0.39,0.51-0.77,1.02-1.15,1.53c-2.08,2.83-3.74,5.95-5.24,9.12c-1.82,3.84-3.37,7.82-4.57,11.9c-1.15,3.92-1.77,7.93-2.31,11.96
	c-0.28,2.07-0.43,4.16-0.47,6.25c-0.67,1.64-1.26,3.3-1.74,4.98c-1.28,4.44-1.18,9.07-0.54,13.59c0.26,1.86,0.71,3.63,1.35,5.4
	c0.88,2.4,1.69,5.06,3.6,6.88c1.74,1.66,3.55,2.63,5.85,3.32c0.93,0.28,1.88,0.43,2.84,0.48c0.84,0.99,1.75,1.92,2.69,2.83
	c1.32,1.28,2.75,2.48,4.26,3.57c-1.45,0.45-2.92,0.81-4.42,1.07c-2.33,0.22-4.64,0.24-6.97,0.03c-1.95-0.35-3.82-0.87-5.67-1.57
	c-2.01-0.95-3.92-2.06-5.73-3.34c-1.58-1.34-3-2.8-4.32-4.4c-1.47-2.06-2.75-4.22-3.83-6.51c-1.2-3.14-2-6.38-2.52-9.69
	c-0.49-4.57-0.4-9.12,0.13-13.68c0.95-6.12,2.58-12.09,4.89-17.85c2.42-5.45,5.45-10.64,9.01-15.43c2.72-3.36,5.76-6.36,9.11-9.07
	C446.24,387.98,447.85,386.9,449.52,385.91z M374.3,263.13c6.32-2.63,12.75-5.02,19.24-7.16c6.77-2.23,13.68-3.99,20.74-4.99
	c6.75-0.82,13.58-1.28,20.36-0.5c2.38,0.35,4.74,0.84,6.99,1.68c0.8,0.41,1.53,0.87,2.26,1.39c0.54,0.43,1.08,0.87,1.61,1.32
	c-3.78,0.07-7.57,0.21-11.35,0.44c-8.56,0.51-17.07,1.49-25.55,2.71c-7.91,1.14-15.75,2.68-23.49,4.61
	c-10.57,2.63-20.92,6.18-30.95,10.45C360.69,269.4,367.41,266.07,374.3,263.13z M355.02,321.52c-1.18,0.7-2.35,1.43-3.51,2.17
	c-6.53,4.2-12.66,9.11-18.41,14.32c-11.32,10.29-20.91,22.56-28.43,35.87c-3.94,6.96-7.21,14.29-10.03,21.77
	c-2.72,7.2-4.79,14.66-6.23,22.22c-2.99,15.71-3.36,32.25,0.21,47.89c-3.8-5.3-7.02-10.93-9.67-16.9
	c-2.63-6.53-4.59-13.29-5.69-20.24c-0.75-6.8-0.56-13.65,0.24-20.44c1.39-9.26,3.83-18.29,7.33-26.97
	c3.08-7.04,6.76-13.83,11.01-20.23c5.28-6.17,11.1-11.86,17.48-16.9c9.19-6.91,19.31-12.45,29.86-17.01
	C344.38,324.93,349.66,323.09,355.02,321.52z M431.98,196.07c-1.58-1.58-2.81-4.08-2.64-6.38c0.62-8.38,1.21-16.76,1.72-25.16
	c0.42-7.03,0.85-14.06,1.27-21.08c0.29-4.87,0.39-9.76,0.58-14.64c0.19-5.12,0.38-10.23,0.53-15.35c0.17-5.9,0.24-11.81,0.46-17.72
	c0.02-5.17,4.3-9.49,9.49-9.49c2.51,0,4.94,1.01,6.71,2.78c1.89,1.89,2.57,4.12,2.78,6.71c0.13,1.61-0.04,3.25-0.11,4.87
	c-0.04,1.1-0.08,2.2-0.14,3.3c-0.18,3.49-0.37,6.97-0.55,10.46c-0.52,9.83-0.9,19.68-1.54,29.5c-1,15.27-2,30.54-3.16,45.8
	c-0.19,2.46-0.85,4.59-2.64,6.38c-1.68,1.69-3.99,2.64-6.38,2.64C435.97,198.71,433.66,197.75,431.98,196.07z M564.52,222.63
	c7.25-12.35,14.56-24.67,21.95-36.95c3.08-5.13,6.17-10.26,9.25-15.39c2.72-4.53,5.67-8.94,8.51-13.4
	c2.61-4.11,5.22-8.22,7.86-12.32c1.91-2.97,3.81-5.95,5.72-8.93c0.97-1.51,1.62-3.17,2.52-4.72c0.7-1.21,1.47-2.14,2.38-3.29
	c0.87-1.11,1.7-1.62,2.96-2.56c1.82-1.35,4.09-1.99,6.36-1.99c1.09,0,2.17,0.15,3.21,0.44c6.73,1.9,10.33,10.05,6.58,16.17
	c-1.89,3.08-3.88,6.09-5.96,9.05c-0.69,1.16-1.54,2.15-2.57,2.98c-0.57,0.86-1.14,1.72-1.71,2.58c-1.71,2.58-3.42,5.15-5.11,7.75
	c-3.85,5.91-7.69,11.83-11.54,17.74c-2.14,3.28-4.1,6.69-6.13,10.03c-4.01,6.6-8.02,13.21-12.03,19.82
	c-4.75,7.83-9.36,15.75-14.01,23.65c-2.92,4.95-9.47,6.7-14.45,3.79C563.35,234.18,561.61,227.6,564.52,222.63z M651.6,308.39
	c-0.64-2.33-0.31-4.88,0.91-6.97c1.22-2.08,3.13-3.44,5.41-4.15c9.31-2.94,18.62-5.85,27.97-8.66c7.46-2.24,14.92-4.48,22.38-6.72
	c4.84-1.45,9.81-2.54,14.71-3.8c4.95-1.27,9.87-2.49,14.85-3.6c5.85-1.3,11.7-2.55,17.57-3.77c2.51-0.53,5.03-1.02,7.55-1.52
	c1.26-0.25,2.54-0.43,3.82-0.63c1.27-0.2,2.54-0.43,3.81-0.54c0.9-0.08,1.78-0.15,2.69-0.15c0.03,0,0.05,0,0.08,0
	c1.28,0.01,2.74,0.35,4.01,0.67c5.03,1.27,8,6.78,6.65,11.71c-1.07,3.9-4.99,7.23-9.18,6.99c-0.58-0.03-1.13-0.04-1.69-0.01
	c-5.65,0.91-11.28,1.89-16.93,2.83c-6.37,1.07-12.69,2.35-19.03,3.59c-1.65,0.33-3.28,0.78-4.92,1.18
	c-3.83,0.93-7.65,1.86-11.48,2.79c-3.84,0.93-7.62,1.89-11.41,3.01c-7.35,2.17-14.7,4.34-22.05,6.51
	c-8.23,2.43-16.4,5.01-24.59,7.57C658.01,316.18,652.87,313.02,651.6,308.39z M784.27,401.89c2.37,1.6,4.14,3.58,4.92,6.39
	c0.76,2.76,0.37,5.77-1.08,8.24c-2.42,4.14-7.45,6.18-12.07,4.92c-0.53-0.14-1.06-0.27-1.59-0.38c-8.17-0.83-16.44-0.58-24.64-0.69
	c-4.3-0.06-8.6-0.08-12.9-0.23c-15.19-0.54-30.38-1.09-45.56-1.74c-3.18-0.14-6.08-1.18-8.37-3.47c-2.21-2.21-3.47-5.24-3.47-8.37
	c0-6.11,5.15-11.84,11.4-11.84c0.14,0,0.29,0,0.43,0.01c15.45,0.65,30.9,1.19,46.35,1.72c4.69,0.16,9.38,0.21,14.08,0.3
	c2.49,0.05,4.99,0.1,7.47,0.15c3.55,0.07,7.14,0.29,10.67,0.68c2.6,0.29,5.33,0.69,7.85,1.48
	C780.03,399.76,782.3,400.56,784.27,401.89z M640.2,503.36c2.41,0,4.74,0.68,6.98,1.84c8.72,4.52,17.44,9.03,26.16,13.56
	c10.37,5.38,20.76,10.74,31.11,16.16c5.1,2.67,10.21,5.31,15.28,8.03c5.28,2.82,10.63,5.55,15.77,8.63
	c5.92,3.54,8.07,11.34,4.55,17.35c-1.66,2.83-4.41,4.95-7.58,5.83c-2.25,0.6-4.5,0.6-6.74,0c-6.95-2.51-13.58-5.97-20.23-9.19
	c-8.8-4.26-17.47-8.79-26.16-13.28c-15.29-7.89-30.57-15.79-45.84-23.71c-3.04-1.58-5.33-4.86-6.23-8.1
	c-0.96-3.5-0.46-7.31,1.37-10.44c1.77-3.03,4.71-5.29,8.09-6.22C637.91,503.51,639.06,503.36,640.2,503.36z M570.32,645.17
	c-7.61-13.46-15.22-26.9-22.62-40.47c-1.68-3.08-2.25-6.56-1.31-9.99c0.89-3.24,3.06-6.05,5.95-7.75c1.99-1.16,4.24-1.72,6.5-1.72
	c4.5,0,8.99,2.24,11.24,6.37c5.92,10.84,11.94,21.61,18,32.36c5.3,9.39,10.81,18.64,16.31,27.91c2.59,4.36,5.15,8.74,7.69,13.11
	c3,5.15,5.91,10.38,9.04,15.46c3.36,5.44,1.21,12.88-4.21,16.05c-4.42,2.58-10.65,2.01-14.21-1.83c-2.1-2.27-3.93-4.86-5.71-7.4
	c-1.11-1.58-2.19-3.15-3.26-4.75c-2.33-3.51-4.62-7.03-6.88-10.58c-2.86-4.5-5.69-9.01-8.48-13.55
	C575.69,653.99,572.86,649.65,570.32,645.17z M476.94,735.24c0.88,5.07,1.69,10.18,2.81,15.2c0.61,2.7,0.4,5.37-1.02,7.81
	c-1.33,2.27-3.52,3.96-6.06,4.66c-2.61,0.72-5.47,0.35-7.81-1.02c-2.37-1.38-3.8-3.5-4.66-6.05c-1.93-5.77-2.97-11.84-4.15-17.79
	c-1.07-5.42-1.98-10.88-2.95-16.32c-0.98-5.52-1.73-11.08-2.59-16.61c-0.75-4.81-1.53-9.6-1.98-14.45
	c-0.7-7.49-1.39-14.98-2.09-22.47c-0.24-2.63-0.49-5.27-0.73-7.91c-0.51-5.53-0.67-11.09-0.98-16.63c-0.15-2.7,1.2-5.55,3.07-7.42
	c1.96-1.96,4.65-3.08,7.42-3.08c2.78,0,5.46,1.12,7.43,3.08c2.05,2.05,2.91,4.58,3.07,7.42c0.34,5.87,0.53,11.76,1.09,17.61
	c0.37,3.86,0.74,7.71,1.11,11.57c0.64,6.7,1.28,13.39,1.92,20.09c1.39,8.84,2.76,17.68,4.3,26.5
	C475.11,724.69,476.02,729.97,476.94,735.24z M298.11,738.33c-0.16,1.47-0.27,2.95-0.19,4.43c0.3,1.34,0.27,2.67-0.09,4.01
	c-0.39,1.39-1.09,2.59-2.11,3.62c-1.53,1.53-3.63,2.4-5.79,2.4s-4.26-0.87-5.79-2.4c-1.63-1.63-2.22-3.55-2.4-5.79
	c-0.14-1.7-0.02-3.32,0.19-5.01c0.21-1.66,0.41-3.37,0.78-5.01c0.31-1.38,0.63-2.75,0.94-4.13c0.54-2.36,1.22-4.69,1.86-7.02
	c1.34-4.86,2.94-9.63,4.46-14.43c1.47-4.65,3.01-9.28,4.64-13.88c2.13-6.02,4.57-11.9,6.97-17.81c2.47-6.08,4.95-12.36,8.72-17.78
	c2.01-2.89,4.22-5.66,6.91-7.95c1.36-1.16,2.76-2.28,4.21-3.32c1.12-0.81,2.19-1.43,3.45-1.98c1.1-0.64,2.28-0.96,3.55-0.96
	c0.62,0.09,1.25,0.17,1.87,0.25c1.76,0.49,3.28,1.66,4.2,3.23c0.95,1.62,1.21,3.6,0.71,5.42c-0.44,1.58-1.65,3.51-3.23,4.2
	c-0.67,0.29-1.41,0.54-2.02,0.97c-0.5,0.34-0.99,0.69-1.48,1.05c-1.88,1.53-3.62,3.19-5.19,5.05c-2.79,3.88-4.9,8.18-6.79,12.56
	c-3.59,8.65-6.91,17.39-9.73,26.32c-0.9,2.84-1.84,5.67-2.63,8.54c-0.59,2.15-1.18,4.3-1.78,6.45c-0.88,3.19-1.7,6.35-2.41,9.57
	C299.24,732.04,298.65,735.17,298.11,738.33z M140.05,659.47c-1.09-3.95,1.3-8.13,5.24-9.23c0.42-0.12,0.83-0.24,1.24-0.38
	c2-1.03,3.82-2.34,5.63-3.68c1.25-0.93,2.52-1.84,3.75-2.79c2.13-1.63,4.25-3.26,6.37-4.89c0.27-0.22,0.54-0.43,0.82-0.66
	c8.73-6.98,17.41-14,26.02-21.12c5.03-4.15,10.06-8.31,15.08-12.46c1.9-1.57,3.8-3.14,5.71-4.7c3.12-2.54,6.21-5.13,9.38-7.61
	c1.48-1.16,2.96-2.32,4.48-3.44c1.26-0.93,2.56-1.82,3.82-2.76c2.32-1.86,4.55-3.89,7.32-5.04c0.95-0.39,2.08-0.73,3.16-0.73
	c0.39,0,0.78,0.04,1.16,0.15c1.12,0.31,1.92,1.05,2.74,1.82c0.64,0.61,1,1.53,1,2.4c0,0.98-0.41,1.67-1,2.4
	c-0.97,1.21-1.95,2.41-2.92,3.62c-0.52,0.65-1.55,0.98-2.35,0.98c-0.88,0-1.73-0.35-2.35-0.98c-0.09-0.09-0.17-0.18-0.24-0.27
	c-0.32,0.29-0.65,0.58-0.97,0.86c-0.98,0.86-2,1.66-3.04,2.45c-5.64,4.41-10.99,9.23-16.32,14.01c-3.25,2.91-6.49,5.82-9.74,8.74
	c-3.5,3.14-7.01,6.26-10.47,9.44c-4.34,3.98-8.74,7.89-13.01,11.94c-3.98,3.77-7.98,7.51-11.92,11.32
	c-1.97,1.91-3.94,3.82-5.91,5.72c-3.57,3.43-7.11,7.29-11.67,9.36c-1.17,0.68-2.43,1.02-3.78,1.02c-1.36,0-2.62-0.34-3.79-1.02
	C141.82,662.97,140.56,661.35,140.05,659.47z M83.19,540.64c-7.12,1.51-14.24,3.01-21.35,4.52c-4.3,0.91-8.59,1.82-12.89,2.74
	c-3.23,0.69-6.47,1.38-9.71,2.07c-6.14,1.31-12.52,2.78-18.82,2.51c-2.69-0.11-5.13-1-7.06-2.92c-1.86-1.86-2.92-4.42-2.92-7.06
	c0-2.64,1.06-5.2,2.92-7.06c1.25-1.24,2.71-2.09,4.41-2.57c0.77-0.1,1.55-0.21,2.32-0.31c4.65-0.72,9.2-1.82,13.78-2.84
	c3-0.67,6-1.34,8.99-2c4.14-0.92,8.26-1.87,12.4-2.75c11.6-2.47,23.2-4.94,34.8-7.41c3.19-0.68,6.4-1.24,9.6-1.86
	c7.68-1.48,15.35-2.96,23.03-4.44c15.78-3.04,31.57-6,47.38-8.9c1.03-0.19,2.02-0.3,2.99-0.3c1.77,0,3.47,0.38,5.17,1.37
	c2.37,1.39,4.14,3.68,4.87,6.33c0.75,2.73,0.36,5.71-1.07,8.16c-1.28,2.2-3.74,4.39-6.33,4.86c-26.56,4.86-53.05,10.02-79.56,15.13
	C91.81,538.74,87.5,539.73,83.19,540.64z M69.95,392.42c0.57-2.07,1.96-3.87,3.82-4.96c1.29-0.75,2.69-1.13,4.19-1.13
	c7.6,0.59,15.16,1.64,22.73,2.59c26.43,3.34,52.73,7.61,79.04,11.78c2.24,0.35,4.43,2.38,5.53,4.25c1.25,2.14,1.59,4.74,0.93,7.13
	c-0.64,2.31-2.18,4.32-4.25,5.53c-1.44,0.84-3,1.26-4.67,1.27c-0.82-0.11-1.64-0.22-2.46-0.33c-10.5-1.66-21-3.3-31.5-4.92
	c-11.67-1.8-23.35-3.59-35.03-5.35c-5.22-0.78-10.43-1.58-15.64-2.43c-5.65-0.91-11.34-1.77-16.89-3.21
	C71.37,401.5,68.76,396.73,69.95,392.42z M71.27,225.12c-0.76-1.3-1.13-2.7-1.14-4.2c0.01-1.5,0.38-2.91,1.14-4.21
	c1.11-1.9,2.89-3.21,4.98-3.83c1.95-0.58,3.83-1.15,5.86-1.42c2.28-0.31,4.55-0.51,6.84-0.71c1.4-0.13,2.79-0.25,4.19-0.38
	c2.62-0.24,5.26-0.38,7.89-0.45c0.06,0,0.11,0,0.17,0c4.22,0,7.71,3.72,7.71,7.88c0,2.08-0.84,4.1-2.31,5.57
	c-1.56,1.56-3.43,2.16-5.57,2.31c-0.12,0.01-0.24,0.02-0.37,0.03c2.35,1.31,4.71,2.59,7.1,3.84c6.19,3.22,12.38,6.44,18.6,9.6
	c5.55,2.81,11.08,5.66,16.64,8.44c1.61,0.8,3.16,1.74,4.73,2.61c3.44,1.9,6.88,3.79,10.33,5.69c2.91,1.61,5.82,3.21,8.74,4.82
	c3.86,2.12,7.6,4.47,11.3,6.85c6.85,4.41,13.4,9.23,19.43,14.71c5.73,5.21,11.04,10.81,16.2,16.58c1.27,1.42,2.07,3.03,2.07,4.98
	c0,1.86-0.75,3.67-2.07,4.99c-2.61,2.61-7.4,2.86-9.97,0c-6.88-7.65-14.05-15.01-22.13-21.42c-7.96-6.01-16.63-11.1-25.42-15.79
	c-6.4-3.42-12.82-6.83-19.22-10.25c-4.03-2.15-8.21-4.04-12.33-6.03c-4.53-2.19-9.06-4.37-13.59-6.57
	c-5.18-2.51-10.42-4.93-15.53-7.56c-3.05-1.57-6.09-3.14-9.13-4.7c-2.27-1.17-4.6-2.28-6.79-3.6c-1.76-1.05-3.41-2.09-5.02-3.38
	C73.1,228.33,72.06,226.83,71.27,225.12z M209.78,160.65c-1.96-3.7-3.9-7.62-3.69-11.91c0.11-2.23,0.82-4.23,2.42-5.84
	c1.54-1.54,3.65-2.41,5.83-2.41c2.18,0,4.29,0.88,5.83,2.41c1.49,1.5,2.11,3.23,2.35,5.22c0.04,0.14,0.07,0.27,0.12,0.41
	c1.98,3.98,4.42,7.66,6.82,11.4c1.32,2.07,2.68,4.08,4.08,6.09c2.31,3.32,4.62,6.63,6.93,9.94c3.6,5.17,7.44,10.21,11.28,15.2
	c7.69,9.85,16.04,19.14,24.7,28.15c4.59,4.78,9.24,9.52,13.95,14.19c4.49,4.44,9.21,8.64,13.82,12.95c3.33,3.11,3.14,8.68,0,11.82
	c-1.56,1.56-3.7,2.45-5.91,2.45c-2.27,0-4.27-0.92-5.91-2.45c-5.78-5.38-11.61-10.68-17.2-16.27c-5.59-5.58-11.13-11.21-16.53-16.98
	c-5.38-5.76-10.66-11.62-15.63-17.74c-5.22-6.43-10.21-13.06-15.15-19.71c-3.87-5.21-7.55-10.57-11.3-15.87
	c-1.52-2.16-2.83-4.48-4.24-6.71C211.45,163.57,210.58,162.15,209.78,160.65z M281.54,49.07c-0.07-1.11,0.38-3.1,0.67-4.38
	c1.12-4.83,5.85-7.96,10.6-7.96c0.93,0,1.86,0.12,2.76,0.37c2.72,0.75,5.07,2.56,6.49,4.99c0.98,1.69,1.48,3.52,1.49,5.48
	c-0.03,0.33-0.05,0.64-0.06,0.95c0.95,4.04,2.61,7.94,4.11,11.8c1.3,3.33,2.59,6.67,3.88,10c3.42,8.8,7.11,17.5,10.74,26.21
	c5.28,12.68,10.55,25.36,15.83,38.05c0.96,2.32,1.85,4.61,2.67,6.98c2.27,6.57,4.54,13.13,6.81,19.7
	c2.45,7.07,4.89,14.14,7.34,21.21c0.6,1.75,1.21,3.5,1.81,5.25c1.81,5.22,2.94,10.7,4.38,16.02c1.47,5.43-1.77,11.21-7.21,12.7
	c-5.41,1.49-11.23-1.78-12.7-7.21c-1.78-6.55-3.4-13.11-5.64-19.51c-2.02-5.76-4.03-11.52-6.05-17.27
	c-3.33-9.53-6.7-19.06-10.01-28.61c-3.35-7.87-6.7-15.73-10.05-23.6c-4.2-9.87-8.42-19.73-12.67-29.58
	c-2.3-5.33-4.61-10.66-6.82-16.03c-1.34-3.28-2.69-6.56-4.03-9.84c-0.87-2.12-1.72-4.27-2.45-6.44c-0.53-1.56-1.09-3.18-1.34-4.82
	C281.88,52.04,281.65,50.56,281.54,49.07z"/>
</svg>
